<svg id="b6681aac-0707-4b76-bb3e-8695e3c2d5c6" data-name="Capa 1" xmlns="http://www.w3.org/2000/svg" viewBox="0 0 252.5 252.5">
  <defs>
    <style>
      .\30 441173f-cc55-427a-96a5-a701bfbf182a {
        fill: #ddd;
      }

      .\36 12146c0-525e-4021-a17c-ac2fa9862c31, .d79dc986-abfa-42d7-877d-bb3e297a8fb2 {
        fill: #33691e;
      }

      .ba7214f0-0f91-470f-9f28-d4664e0b2865 {
        fill: #e0e0e0;
      }

      .\31 5dae420-230b-430a-87b2-0ca4003c984b, .\32 2d52f70-1745-40a2-aeda-c1330c4924df, .\36 12146c0-525e-4021-a17c-ac2fa9862c31, .ba7214f0-0f91-470f-9f28-d4664e0b2865, .c5264950-c516-4667-8399-e025aad0ab6f {
        fill-rule: evenodd;
      }

      .c5264950-c516-4667-8399-e025aad0ab6f {
        fill: #d0d0d0;
      }

      .\31 5dae420-230b-430a-87b2-0ca4003c984b, .\35 373f60c-cc2b-44be-b734-d9e5f1dbe785 {
        fill: #424242;
      }

      .bacd32ef-0d3e-4780-9d75-c8454ac7e099 {
        fill: #d50000;
      }

      .\37 8dc99ff-ea27-436b-a8dc-6e4768675b6a {
        fill: #ff9800;
      }

      .b0b9e1ac-7745-47d1-9182-892cbf1e294c {
        fill: #7cb342;
      }

      .\32 2d52f70-1745-40a2-aeda-c1330c4924df {
        fill: #212121;
      }
    </style>
  </defs>
  <title>autonomos</title>
  <g id="3c8d2e81-39bd-4fbe-a3be-1e724b7d4216" data-name="Circle">
    <path class="0441173f-cc55-427a-96a5-a701bfbf182a" d="M1686.1,447.1a126.3,126.3,0,1,1,126.3-126.3A126.4,126.4,0,0,1,1686.1,447.1Zm0.7-239.6a114.3,114.3,0,1,0,114.3,114.3A114.5,114.5,0,0,0,1686.8,207.5Z" transform="translate(-1559.9 -194.5)"/>
  </g>
  <g>
    <path class="d79dc986-abfa-42d7-877d-bb3e297a8fb2" d="M1620.2,298l-1.9-.6h-0.1c0.5,1.8.3,4.7-.9,8.2s-4.5,7.2-6.7,6.6-4.3-8.2.4-18.1h-0.3c-1.1-.6-3.7-1.2-5.9,4.7a22.1,22.1,0,0,0-1.5,8l-2.1.7a27.4,27.4,0,0,1,2-10.3c3.5-8.8,7.8-8.8,10.5-7.3l5,2.9a14.2,14.2,0,0,0,3.4,1.5Zm-7.4-2.9c-2.4,4.9-4,11.3-1.1,12.3s3.2-1.2,4.1-3.5,1-5.7.1-6.9a2,2,0,0,0-.7-0.6Z" transform="translate(-1559.9 -194.5)"/>
    <path class="d79dc986-abfa-42d7-877d-bb3e297a8fb2" d="M1636,271.2a38.8,38.8,0,0,0,2.9,3.2l-2.8,2.4-1.9-1.7h-0.1c0,1.7-.6,4.5-3.3,7.6s-6.1,5.6-10.5,2.4l-7.4-5.3c1.2-1.7,1.8-2.6,3.1-4.2l6.7,5.4c2.3,1.9,4.7,1.9,7.3-1a7.4,7.4,0,0,0,2.2-5.9,2.9,2.9,0,0,0-.7-1.3l-6.5-7,3.8-3.3Z" transform="translate(-1559.9 -194.5)"/>
    <path class="d79dc986-abfa-42d7-877d-bb3e297a8fb2" d="M1638.1,250.5l2.3,3.9c2.4-1.4,3.7-2.1,6.2-3.3l0.9,1.9c-2.5,1.2-3.7,1.8-6,3.2l4.3,7.2c1,1.7,2.2,2.2,4.3,1.1l2.1-1.3,1.1,1.8a17,17,0,0,1-3,2,8.2,8.2,0,0,1-4.4,1.2,4.9,4.9,0,0,1-3.6-2.5l-4.7-7.1-3.4,2.3-1.3-1.7,3.5-2.4-2.1-3.1Z" transform="translate(-1559.9 -194.5)"/>
    <path class="d79dc986-abfa-42d7-877d-bb3e297a8fb2" d="M1675.6,250.6c0.7,5.7-4.5,8.9-9.7,10.3s-11.2.7-13.2-3.8,2-10,9.2-11.9S1675,245.9,1675.6,250.6Zm-18.8,4.7c1.2,3.2,4.8,4.5,8.7,3.5s6.2-4,5.6-7.4-3.3-5.6-8.8-4.2S1655.8,252.5,1656.9,255.3Z" transform="translate(-1559.9 -194.5)"/>
    <path class="d79dc986-abfa-42d7-877d-bb3e297a8fb2" d="M1692.4,248.3l-0.2,2.1a71.8,71.8,0,0,0-12.4,0l-0.2-2.1A73.7,73.7,0,0,1,1692.4,248.3Z" transform="translate(-1559.9 -194.5)"/>
    <path class="d79dc986-abfa-42d7-877d-bb3e297a8fb2" d="M1697.8,248.1c0.3-2,.4-3.6.5-5l4.3,0.7-0.3,2.7h0.1c2.3-1.5,5.6-2,9.8-.8,6.2,1.8,9.4,6.7,7.5,11.1s-7.8,5.7-12.8,4.3c-2.8-.8-5.1-2.2-6.1-3.9h-0.1l-1.6,8.3-3.6-.6Zm3.7,4.8a4.4,4.4,0,0,0,0,1.2c0.4,2.1,2.5,3.8,5.4,4.6s7.4-.2,8.7-3.5-0.5-6.5-5.4-7.8c-3.1-.8-6.4-0.1-7.7,1.8a3,3,0,0,0-.5,1.1Z" transform="translate(-1559.9 -194.5)"/>
    <path class="d79dc986-abfa-42d7-877d-bb3e297a8fb2" d="M1735.5,251.3c-0.5.8-1.9,0.8-3.7-.1s-2.3-2.1-1.9-3,2-1,3.7,0S1735.9,250.5,1735.5,251.3Zm-14.4,14.8,7.3-13.8,4.3,2.4-8.1,13.3Z" transform="translate(-1559.9 -194.5)"/>
    <path class="d79dc986-abfa-42d7-877d-bb3e297a8fb2" d="M1743.8,253.4l4.2,3.3-14.6,17.7-3.2-2.5Z" transform="translate(-1559.9 -194.5)"/>
    <path class="d79dc986-abfa-42d7-877d-bb3e297a8fb2" d="M1758.3,292.5c-5,2.8-10.2-1.6-13.6-6.1s-5.2-10.5-1.8-14.1,10.2-1.9,15,4.4S1762.4,290.2,1758.3,292.5Zm-12.1-16.9c-2.5,2.3-2.3,6.2.3,9.7s6.3,4.8,9.3,2.9,3.9-5.4.3-10.2S1748.3,273.5,1746.1,275.6Z" transform="translate(-1559.9 -194.5)"/>
    <path class="d79dc986-abfa-42d7-877d-bb3e297a8fb2" d="M1774.6,300l-4.2,1.5c1.1,3.1,1.6,4.7,2.4,8l-2.1.5c-0.8-3.2-1.3-4.8-2.4-7.8l-7.9,2.8c-1.8.7-2.5,1.9-1.7,4.5a25.4,25.4,0,0,0,1,2.8l-2,.8a26.7,26.7,0,0,1-1.6-4,11,11,0,0,1-.6-5.3,4.6,4.6,0,0,1,3-3.3l7.8-3.4c-0.7-1.7-1.1-2.6-1.9-4.2l1.9-1c0.8,1.7,1.2,2.6,1.9,4.3l3.4-1.5C1773,296.8,1773.6,297.9,1774.6,300Z" transform="translate(-1559.9 -194.5)"/>
  </g>
  <g>
    <path class="ba7214f0-0f91-470f-9f28-d4664e0b2865" d="M1688,276.6a60.5,60.5,0,1,0,60.5,60.5A60.7,60.7,0,0,0,1688,276.6Z" transform="translate(-1559.9 -194.5)"/>
    <path class="c5264950-c516-4667-8399-e025aad0ab6f" d="M1688,397.6a60.5,60.5,0,1,1,0-121.1V397.6Z" transform="translate(-1559.9 -194.5)"/>
    <path class="5373f60c-cc2b-44be-b734-d9e5f1dbe785" d="M1688,274a63.1,63.1,0,0,1,0,126.1v-5a58,58,0,1,0,0-116v-5Zm0,126.1a63.1,63.1,0,0,1,0-126.1v5a58,58,0,1,0,0,116v5Z" transform="translate(-1559.9 -194.5)"/>
    <path class="bacd32ef-0d3e-4780-9d75-c8454ac7e099" d="M1726.1,299h0a53.8,53.8,0,0,1,0,76.1h0L1714.9,364h0a38.1,38.1,0,0,0,0-53.8h0Z" transform="translate(-1559.9 -194.5)"/>
    <path class="78dc99ff-ea27-436b-a8dc-6e4768675b6a" d="M1649.9,299h0a53.8,53.8,0,0,1,76.1,0l-11.1,11.1a38.1,38.1,0,0,0-53.8,0h0Z" transform="translate(-1559.9 -194.5)"/>
    <path class="b0b9e1ac-7745-47d1-9182-892cbf1e294c" d="M1649.9,375.1a53.8,53.8,0,0,1,0-76.1l11.1,11.1a38.1,38.1,0,0,0,0,53.8Z" transform="translate(-1559.9 -194.5)"/>
    <path class="22d52f70-1745-40a2-aeda-c1330c4924df" d="M1692.4,332l32.3-15.5a2.3,2.3,0,0,1,2,4.2l-32,15.4a6.8,6.8,0,0,1,.1,1A6.7,6.7,0,1,1,1692.4,332Z" transform="translate(-1559.9 -194.5)"/>
    <path class="15dae420-230b-430a-87b2-0ca4003c984b" d="M1688,339.3a2.2,2.2,0,1,0-1.6-.7A2.2,2.2,0,0,0,1688,339.3Z" transform="translate(-1559.9 -194.5)"/>
    <path class="612146c0-525e-4021-a17c-ac2fa9862c31" d="M1690.3,285.6v6.7h-4.7v-6.7a51.2,51.2,0,0,0-32.1,13.2l4.8,4.8-3.3,3.3-4.8-4.8a51.2,51.2,0,0,0-13.6,32.1h7.1v4.7h-7.1a51.2,51.2,0,0,0,13.4,32.7l5.2-5.2,3.3,3.3-5.9,6-2.3,2.5-0.9-.8-0.8-.8a55.9,55.9,0,1,1,79,0l-1.7,1.6-3-3.3h0.1l-5.3-5.3,3.3-3.3,5.2,5.2a51.2,51.2,0,0,0,13.2-32.5h-7.2v-4.7h7.1a51.2,51.2,0,0,0-13.7-32.3l-4.8,4.9-3.3-3.3,4.8-4.9A51.2,51.2,0,0,0,1690.3,285.6Z" transform="translate(-1559.9 -194.5)"/>
  </g>
</svg>
