<svg id="c9d5a032-f454-4c02-b14b-da8360ce29ec" data-name="Capa 1" xmlns="http://www.w3.org/2000/svg" viewBox="0 0 252.5 252.5">
  <defs>
    <style>
      .d8f6fef1-a2d8-47b5-bc29-17b696c1e813 {
        fill: #ddd;
      }

      .\36 8e1ce0d-fcfe-47f7-8694-48b9883b51ab, .ea7aced6-2a9a-4c9d-b0c2-c890fa95a24e {
        fill: #80b500;
      }

      .ea7aced6-2a9a-4c9d-b0c2-c890fa95a24e {
        fill-rule: evenodd;
      }
    </style>
  </defs>
  <title>electricos</title>
  <g id="40f49566-c406-432b-a08a-22e643f3466d" data-name="Circle">
    <path class="d8f6fef1-a2d8-47b5-bc29-17b696c1e813" d="M1362.2,445.6a126.3,126.3,0,1,1,126.3-126.3A126.4,126.4,0,0,1,1362.2,445.6Zm0.7-239.6a114.3,114.3,0,1,0,114.3,114.3A114.5,114.5,0,0,0,1362.8,206Z" transform="translate(-1235.9 -193)"/>
  </g>
  <g id="955cc8ce-34af-4ad0-959f-8b570b926316" data-name="Electric Car">
    <g>
      <g>
        <rect class="68e1ce0d-fcfe-47f7-8694-48b9883b51ab" x="179.8" y="78.5" width="29.3" height="4.15"/>
        <path class="ea7aced6-2a9a-4c9d-b0c2-c890fa95a24e" d="M1362.3,276.7c0-7.8,3.1-13.9,8.9-17.3a18.6,18.6,0,0,1,18.3,0c5.8,3.4,9.1,9.6,9.1,17.2,0,5.1,0,10,0,14.5v5.9c0,8.5,3.1,15.2,8.5,18.3a12.6,12.6,0,0,0,12.8,0c4.8-2.8,7.7-8.5,8.2-15.7h-1.8v-3.5a14.3,14.3,0,0,1-10.6-13.4h0v-4.3H1445v4.3h0a14.3,14.3,0,0,1-10.6,13.4v3.5h-1.9c-0.5,8.9-4.2,15.9-10.3,19.5a16.9,16.9,0,0,1-17.1,0c-6.8-3.9-10.7-11.9-10.7-22.1v-5.9c0-4.5,0-9.4,0-14.6s-2.4-10.9-6.9-13.5a14.2,14.2,0,0,0-14,0c-4.4,2.6-6.8,7.4-6.8,13.5-0.1,8.9,0,42.7,0,42.9a2.2,2.2,0,0,1-4.3,0C1362.3,319.5,1362.2,285.6,1362.3,276.7Z" transform="translate(-1235.9 -193)"/>
        <path class="ea7aced6-2a9a-4c9d-b0c2-c890fa95a24e" d="M1419.4,256.4a3.2,3.2,0,1,1,6.3,0v13.3h-6.3V256.4Z" transform="translate(-1235.9 -193)"/>
        <path class="ea7aced6-2a9a-4c9d-b0c2-c890fa95a24e" d="M1435,256.4a3.2,3.2,0,1,1,6.3,0v13.3H1435V256.4Z" transform="translate(-1235.9 -193)"/>
      </g>
      <path class="68e1ce0d-fcfe-47f7-8694-48b9883b51ab" d="M1389.6,327.6c-5.3-1.8-8.1-5.1-11-8.6a35.8,35.8,0,0,0-7.7-7.3c0,3.1,0,5.8,0,7.6v0.3a6.4,6.4,0,0,1-6.4,6.5,6.4,6.4,0,0,1-6.5-6.4c0-.1,0-5.3,0-12.2l-5.1-.3h-0.3c-17.3,0-28.4,9.1-35.8,15.2-3.1,2.5-5.8,4.7-7.6,5.1-18.8,3.8-27.7,15.9-29.8,26-1.3,6.1,0,11.4,3.3,13.7a20.3,20.3,0,0,0,5.9,2.5h0.8a17.1,17.1,0,0,0,30.6,4.7,2.9,2.9,0,0,0,.8-0.9l0.7,0.2c5,0.2,10.3.3,15.7,0.3,7.5,0,22.8-.6,23-0.6a17.1,17.1,0,0,0,31.3-3.9,46.6,46.6,0,0,0,7-2.1c4.2-2,5.3-10,4.9-16.3C1403,341.8,1399,330.8,1389.6,327.6ZM1306,379.1a14.2,14.2,0,1,1,14.2-14.2A14.2,14.2,0,0,1,1306,379.1Zm69.2,0a14.2,14.2,0,1,1,14.2-14.2A14.2,14.2,0,0,1,1375.1,379.1Z" transform="translate(-1235.9 -193)"/>
    </g>
  </g>
</svg>
