<svg id="logo_cai" data-name="Layer 1" xmlns="http://www.w3.org/2000/svg" viewBox="0 0 646.3 216.9">
  <defs>
    <style>
      .\31 bf6de9d-9429-4177-8f67-3f79b8d29bf1 {
        fill: #808285;
      }

      .a7fe92b9-fef6-4a8d-a7dc-77de5e153f95, .f17080b8-4857-494d-b80b-2e67c3edd67d {
        fill: #364458;
      }

      .f17080b8-4857-494d-b80b-2e67c3edd67d {
        stroke: #364458;
      }

      .b4b52558-c4df-4b98-a6bb-28aa3c9b4674, .f17080b8-4857-494d-b80b-2e67c3edd67d {
        stroke-miterlimit: 10;
        stroke-width: 7.87px;
      }

      .\33 fcd526b-18f1-4457-83a7-df75fa87f52c, .b4b52558-c4df-4b98-a6bb-28aa3c9b4674 {
        fill: #3d99d4;
      }

      .b4b52558-c4df-4b98-a6bb-28aa3c9b4674 {
        stroke: #3d99d4;
      }
    </style>
  </defs>
  <title>Logo-CAI-Final</title>
  <g>
    <g>
      <path class="1bf6de9d-9429-4177-8f67-3f79b8d29bf1" d="M64.9,232.8a14.2,14.2,0,0,0-4.1-3,11.1,11.1,0,0,0-9.6,0,13,13,0,0,0-4,3.1,14.7,14.7,0,0,0-2.7,4.6,15.7,15.7,0,0,0-1,5.6,16.4,16.4,0,0,0,1,5.6,14.7,14.7,0,0,0,2.6,4.6,12.8,12.8,0,0,0,4,3.1,11,11,0,0,0,5,1.2,10.7,10.7,0,0,0,4.7-1.1,14.9,14.9,0,0,0,4.1-2.9l1.9,1.8a17.1,17.1,0,0,1-4.9,3.6,13.1,13.1,0,0,1-11.5,0,16.2,16.2,0,0,1-4.9-3.7,18.2,18.2,0,0,1-3.4-5.5,18.4,18.4,0,0,1-.1-13.2,17.5,17.5,0,0,1,3.3-5.4,16.3,16.3,0,0,1,4.9-3.7,13.2,13.2,0,0,1,6-1.4,13.5,13.5,0,0,1,5.9,1.3,15.6,15.6,0,0,1,4.9,3.6Z" transform="translate(-40.3 -52.6)"/>
      <path class="1bf6de9d-9429-4177-8f67-3f79b8d29bf1" d="M69.2,248a13.3,13.3,0,0,1,.9-4.9,12.8,12.8,0,0,1,2.5-4,11.8,11.8,0,0,1,3.7-2.7,10.2,10.2,0,0,1,4.4-1,10,10,0,0,1,4.4,1,11.6,11.6,0,0,1,3.6,2.7,13.1,13.1,0,0,1,2.4,4A13.3,13.3,0,0,1,92,248a13.2,13.2,0,0,1-3.3,8.8,11.6,11.6,0,0,1-3.6,2.7,10,10,0,0,1-4.4,1,10.2,10.2,0,0,1-4.4-1,11.8,11.8,0,0,1-3.7-2.7,12.9,12.9,0,0,1-2.5-4A13,13,0,0,1,69.2,248Zm2.7,0a10.6,10.6,0,0,0,.7,3.8,10,10,0,0,0,1.9,3.1,9,9,0,0,0,2.8,2.1,7.7,7.7,0,0,0,3.4.8A7.6,7.6,0,0,0,84,257a8.8,8.8,0,0,0,2.8-2.1,10.3,10.3,0,0,0,1.9-3.1,10.6,10.6,0,0,0,.7-3.8,11,11,0,0,0-.7-3.9,10.2,10.2,0,0,0-1.9-3.2,8.8,8.8,0,0,0-2.8-2.1,7.6,7.6,0,0,0-3.4-.8,7.7,7.7,0,0,0-3.4.8,9,9,0,0,0-2.8,2.1,9.9,9.9,0,0,0-1.9,3.2A11,11,0,0,0,71.9,248Z" transform="translate(-40.3 -52.6)"/>
      <path class="1bf6de9d-9429-4177-8f67-3f79b8d29bf1" d="M97.6,238.2a7.8,7.8,0,0,1,6.3-3,7.5,7.5,0,0,1,3.2.7,8.4,8.4,0,0,1,2.6,1.9,9.3,9.3,0,0,1,1.8,2.9,10.1,10.1,0,0,1,.7,3.5V260h-2.7V244.2a6.4,6.4,0,0,0-.5-2.5,6.6,6.6,0,0,0-1.3-2,5.9,5.9,0,0,0-1.9-1.3,5.7,5.7,0,0,0-2.3-.5,4.7,4.7,0,0,0-2,.5,6.7,6.7,0,0,0-1.8,1.2,8.1,8.1,0,0,0-1.4,1.8,7.5,7.5,0,0,0-.8,2.1V260H95V238.2a4.2,4.2,0,0,0-.2-1.4,2.6,2.6,0,0,0-.5-0.9h3.4v2.4Z" transform="translate(-40.3 -52.6)"/>
      <path class="1bf6de9d-9429-4177-8f67-3f79b8d29bf1" d="M124.5,253.9h1.2a12,12,0,0,1,3.9.6,10.6,10.6,0,0,1,3.1,1.7,8,8,0,0,1,2.1,2.5,6.3,6.3,0,0,1,.8,3,6.4,6.4,0,0,1-.8,3.1,8.1,8.1,0,0,1-2.1,2.5,10.6,10.6,0,0,1-3.1,1.7,11.5,11.5,0,0,1-3.9.6,11.2,11.2,0,0,1-3.8-.6,10.7,10.7,0,0,1-3.1-1.7,8.1,8.1,0,0,1-2.1-2.5,6.4,6.4,0,0,1,.6-7,8.9,8.9,0,0,1,3.4-2.8,5.5,5.5,0,0,1-.3-2.1,3.7,3.7,0,0,1,.8-2.5,7.6,7.6,0,0,1-3.3-6.4,7.5,7.5,0,0,1,.8-3.3,8.4,8.4,0,0,1,2.1-2.7,10.3,10.3,0,0,1,3.1-1.8,10.6,10.6,0,0,1,3.8-.7h2l1.7,0.4h8.9l-2.5,2.6h-2.3a9.3,9.3,0,0,1,1.5,2.4,7.5,7.5,0,0,1-.2,6.2,8.4,8.4,0,0,1-2.1,2.7,10.2,10.2,0,0,1-3.1,1.8,11,11,0,0,1-3.8.7h-1.3l-1.1-.2-1.5-.2-0.9.2a0.7,0.7,0,0,0-.4.7,1,1,0,0,0,.4,1l0.9,0.2h0.7Zm-6,7.7a3.9,3.9,0,0,0,.6,2,5.8,5.8,0,0,0,1.6,1.7,8.6,8.6,0,0,0,5,1.6,9.3,9.3,0,0,0,2.9-.4,8.3,8.3,0,0,0,2.3-1.2,5.5,5.5,0,0,0,1.6-1.7,4,4,0,0,0,0-4.1,5.5,5.5,0,0,0-1.6-1.7,8.3,8.3,0,0,0-2.3-1.2,9.3,9.3,0,0,0-2.9-.4,8.6,8.6,0,0,0-5,1.6,5.8,5.8,0,0,0-1.6,1.7A3.9,3.9,0,0,0,118.5,261.6Zm2-17.7a4.9,4.9,0,0,0,.6,2.3,6,6,0,0,0,1.5,1.9,7.5,7.5,0,0,0,2.3,1.3,8.1,8.1,0,0,0,2.8.5,8.7,8.7,0,0,0,2.9-.5,7.4,7.4,0,0,0,2.3-1.3,6.1,6.1,0,0,0,1.5-1.9,4.9,4.9,0,0,0,.6-2.3,5,5,0,0,0-.6-2.3,6.1,6.1,0,0,0-1.5-1.9,7.4,7.4,0,0,0-2.3-1.3,8.7,8.7,0,0,0-2.9-.5,8.1,8.1,0,0,0-2.8.5,7.5,7.5,0,0,0-2.3,1.3,6,6,0,0,0-1.5,1.9A5,5,0,0,0,120.4,243.9Z" transform="translate(-40.3 -52.6)"/>
      <path class="1bf6de9d-9429-4177-8f67-3f79b8d29bf1" d="M153,238.2l-0.7-.2h-0.4a4.7,4.7,0,0,0-2,.5,6.7,6.7,0,0,0-1.8,1.2,7.5,7.5,0,0,0-1.4,1.8,8,8,0,0,0-.8,2.1V260h-2.6V238.2a4.9,4.9,0,0,0-.3-1.5,2.1,2.1,0,0,0-.8-1.1h3.7v2.8a7.7,7.7,0,0,1,6.2-3h0.7l0.9,0.2Z" transform="translate(-40.3 -52.6)"/>
      <path class="1bf6de9d-9429-4177-8f67-3f79b8d29bf1" d="M166.4,257.8l1.6-.2,1.7-.4,1.6-.6,1.4-.6,1,2.3a18,18,0,0,1-2.9,1.3l-3.1.8h-1.3a8.5,8.5,0,0,1-3.9-.9,10.4,10.4,0,0,1-3.2-2.5,13.2,13.2,0,0,1-2.3-3.7,14.3,14.3,0,0,1-1-4.6v-0.9a15,15,0,0,1,.8-4.9,13.4,13.4,0,0,1,2.1-4,10.5,10.5,0,0,1,3.1-2.7,7.6,7.6,0,0,1,3.8-1,7.9,7.9,0,0,1,3.8,1,10,10,0,0,1,3.1,2.6,12.4,12.4,0,0,1,2,3.9,15.6,15.6,0,0,1,.7,4.9v1.5H158.8a11.7,11.7,0,0,0,.8,3.4,9.8,9.8,0,0,0,1.6,2.8,7.6,7.6,0,0,0,2.3,1.9A6.2,6.2,0,0,0,166.4,257.8Zm6.5-11.3a11.8,11.8,0,0,0-.8-3.4,9.8,9.8,0,0,0-1.6-2.7,7,7,0,0,0-2.2-1.8,5.5,5.5,0,0,0-2.6-.6,5,5,0,0,0-2.5.7,7.3,7.3,0,0,0-2.1,1.8,10.6,10.6,0,0,0-1.6,2.7,13.8,13.8,0,0,0-.9,3.3H173Z" transform="translate(-40.3 -52.6)"/>
      <path class="1bf6de9d-9429-4177-8f67-3f79b8d29bf1" d="M193.4,240.2a7.5,7.5,0,0,0-2.7-1.6,9.6,9.6,0,0,0-3.3-.6,6.8,6.8,0,0,0-3.8,1,3.1,3.1,0,0,0-1.5,2.7,3.2,3.2,0,0,0,.4,1.6,4.9,4.9,0,0,0,1.2,1.4,7.1,7.1,0,0,0,1.8,1.1,9.5,9.5,0,0,0,2.2.6,10.6,10.6,0,0,1,3.1.9,9.2,9.2,0,0,1,2.4,1.7,7.8,7.8,0,0,1,1.6,2.2,5.9,5.9,0,0,1,0,5.2,6.3,6.3,0,0,1-1.7,2.1,8.5,8.5,0,0,1-2.6,1.3,9.8,9.8,0,0,1-3.1.5,11.6,11.6,0,0,1-4.4-.9,8.9,8.9,0,0,1-3.6-2.6l2-1.6a8.3,8.3,0,0,0,2.6,1.7,8.1,8.1,0,0,0,3.3.7,7.7,7.7,0,0,0,2.2-.3,6.2,6.2,0,0,0,1.8-.8,4,4,0,0,0,1.2-1.2,3.1,3.1,0,0,0,.4-1.6,3,3,0,0,0-.5-1.6,6,6,0,0,0-1.2-1.4,7.8,7.8,0,0,0-1.8-1.1l-2.1-.7a10.4,10.4,0,0,1-3-1,10.2,10.2,0,0,1-2.5-1.7,7.8,7.8,0,0,1-1.7-2.2,5.3,5.3,0,0,1-.6-2.4,5.2,5.2,0,0,1,.7-2.6,6.2,6.2,0,0,1,1.8-2,9.1,9.1,0,0,1,2.6-1.3,10.5,10.5,0,0,1,3.1-.5,10.8,10.8,0,0,1,4.4.9,11,11,0,0,1,3.5,2.4Z" transform="translate(-40.3 -52.6)"/>
      <path class="1bf6de9d-9429-4177-8f67-3f79b8d29bf1" d="M198.4,248a13.3,13.3,0,0,1,.9-4.9,12.8,12.8,0,0,1,2.5-4,11.8,11.8,0,0,1,3.7-2.7,10.2,10.2,0,0,1,4.4-1,10,10,0,0,1,4.4,1,11.6,11.6,0,0,1,3.6,2.7,13.1,13.1,0,0,1,2.4,4,13.3,13.3,0,0,1,.9,4.9,13.2,13.2,0,0,1-3.3,8.8,11.6,11.6,0,0,1-3.6,2.7,10,10,0,0,1-4.4,1,10.2,10.2,0,0,1-4.4-1,11.8,11.8,0,0,1-3.7-2.7,12.9,12.9,0,0,1-2.5-4A13,13,0,0,1,198.4,248Zm2.7,0a10.6,10.6,0,0,0,.7,3.8,10,10,0,0,0,1.9,3.1,9,9,0,0,0,2.8,2.1,7.7,7.7,0,0,0,3.4.8,7.6,7.6,0,0,0,3.4-.8,8.8,8.8,0,0,0,2.8-2.1,10.3,10.3,0,0,0,1.9-3.1,10.6,10.6,0,0,0,.7-3.8,11,11,0,0,0-.7-3.9,10.2,10.2,0,0,0-1.9-3.2,8.8,8.8,0,0,0-2.8-2.1,7.6,7.6,0,0,0-3.4-.8,7.7,7.7,0,0,0-3.4.8,9,9,0,0,0-2.8,2.1,9.9,9.9,0,0,0-1.9,3.2A11,11,0,0,0,201.1,248Z" transform="translate(-40.3 -52.6)"/>
      <path class="1bf6de9d-9429-4177-8f67-3f79b8d29bf1" d="M248.6,226.3h2.2L263.2,260h-2.8l-5.1-13.7H244.1l-2.5,6.9L239,260h-2.8Zm5.7,17.3-2.3-6.2-2.3-6.2-2.3,6.2-2.3,6.2h9.2Z" transform="translate(-40.3 -52.6)"/>
      <path class="1bf6de9d-9429-4177-8f67-3f79b8d29bf1" d="M280.8,257.4a9.1,9.1,0,0,1-2.8,2.2,7.5,7.5,0,0,1-3.5.8,7.4,7.4,0,0,1-3.2-.7,8.1,8.1,0,0,1-2.6-1.9A9.6,9.6,0,0,1,267,255a9.9,9.9,0,0,1-.7-3.5V235.7h2.6v15.7a6.5,6.5,0,0,0,.6,2.4,7.5,7.5,0,0,0,1.3,2,6.1,6.1,0,0,0,1.9,1.4,5.2,5.2,0,0,0,2.3.5,4.9,4.9,0,0,0,2.1-.5,6.2,6.2,0,0,0,1.8-1.2,7.5,7.5,0,0,0,2-4V235.6h2.6v21.8a5.3,5.3,0,0,0,.2,1.6,2.7,2.7,0,0,0,.5,1h-3.4v-2.6Z" transform="translate(-40.3 -52.6)"/>
      <path class="1bf6de9d-9429-4177-8f67-3f79b8d29bf1" d="M294.5,226.5V236h6.4v2.7h-6.4V260h-2.6V238.6h-3.6V236h3.5v-9.4h2.7Z" transform="translate(-40.3 -52.6)"/>
      <path class="1bf6de9d-9429-4177-8f67-3f79b8d29bf1" d="M303.5,248a13.3,13.3,0,0,1,.9-4.9,12.8,12.8,0,0,1,2.5-4,11.8,11.8,0,0,1,3.7-2.7,10.2,10.2,0,0,1,4.4-1,10,10,0,0,1,4.4,1A11.6,11.6,0,0,1,323,239a13.1,13.1,0,0,1,2.4,4,13.3,13.3,0,0,1,.9,4.9,13.2,13.2,0,0,1-3.3,8.8,11.6,11.6,0,0,1-3.6,2.7,10,10,0,0,1-4.4,1,10.2,10.2,0,0,1-4.4-1,11.8,11.8,0,0,1-3.7-2.7,12.9,12.9,0,0,1-2.5-4A13,13,0,0,1,303.5,248Zm2.7,0a10.6,10.6,0,0,0,.7,3.8,10,10,0,0,0,1.9,3.1,9,9,0,0,0,2.8,2.1,7.7,7.7,0,0,0,3.4.8,7.6,7.6,0,0,0,3.4-.8,8.8,8.8,0,0,0,2.8-2.1,10.3,10.3,0,0,0,1.9-3.1,10.6,10.6,0,0,0,.7-3.8,11,11,0,0,0-.7-3.9,10.2,10.2,0,0,0-1.9-3.2,8.8,8.8,0,0,0-2.8-2.1,7.6,7.6,0,0,0-3.4-.8,7.7,7.7,0,0,0-3.4.8,9,9,0,0,0-2.8,2.1,9.9,9.9,0,0,0-1.9,3.2A11,11,0,0,0,306.2,248Z" transform="translate(-40.3 -52.6)"/>
      <path class="1bf6de9d-9429-4177-8f67-3f79b8d29bf1" d="M332.2,238.3a8.9,8.9,0,0,1,2.8-2.2,7.5,7.5,0,0,1,3.4-.8,7.4,7.4,0,0,1,4.3,1.3,9.8,9.8,0,0,1,3,3.4,8.8,8.8,0,0,1,1.4-2.2,7.6,7.6,0,0,1,1.8-1.5,7.9,7.9,0,0,1,2-.9l2-.3a7.4,7.4,0,0,1,3.2.7,8.6,8.6,0,0,1,2.6,1.9,9,9,0,0,1,1.8,2.8,10.1,10.1,0,0,1,.7,3.5v15.7h-2.7V244.2a7.2,7.2,0,0,0-.5-2.5,6.4,6.4,0,0,0-1.3-2,6,6,0,0,0-1.9-1.3,5.3,5.3,0,0,0-2.3-.5,5,5,0,0,0-2.1.5,6.8,6.8,0,0,0-1.8,1.2,7.1,7.1,0,0,0-1.4,1.8,6.9,6.9,0,0,0-.8,2.1v16.3h-2.6V244.3a7.1,7.1,0,0,0-.5-2.5,6.3,6.3,0,0,0-1.3-2,6,6,0,0,0-1.9-1.3,5.6,5.6,0,0,0-2.3-.5,4.7,4.7,0,0,0-2,.5,6.6,6.6,0,0,0-1.8,1.2,7.4,7.4,0,0,0-1.3,1.8,8,8,0,0,0-.8,2.1V260h-2.6V238.2a5.5,5.5,0,0,0-.2-1.6,2.8,2.8,0,0,0-.5-1.1h3.4v2.7Z" transform="translate(-40.3 -52.6)"/>
      <path class="1bf6de9d-9429-4177-8f67-3f79b8d29bf1" d="M364.6,248a13.3,13.3,0,0,1,.9-4.9,12.8,12.8,0,0,1,2.5-4,11.8,11.8,0,0,1,3.7-2.7,10.2,10.2,0,0,1,4.4-1,10,10,0,0,1,4.4,1,11.6,11.6,0,0,1,3.6,2.7,13.1,13.1,0,0,1,2.4,4,13.3,13.3,0,0,1,.9,4.9,13.2,13.2,0,0,1-3.3,8.8,11.6,11.6,0,0,1-3.6,2.7,10,10,0,0,1-4.4,1,10.2,10.2,0,0,1-4.4-1,11.8,11.8,0,0,1-3.7-2.7,12.9,12.9,0,0,1-2.5-4A13,13,0,0,1,364.6,248Zm2.7,0a10.6,10.6,0,0,0,.7,3.8,10,10,0,0,0,1.9,3.1,9,9,0,0,0,2.8,2.1,7.7,7.7,0,0,0,3.4.8,7.6,7.6,0,0,0,3.4-.8,8.8,8.8,0,0,0,2.8-2.1,10.3,10.3,0,0,0,1.9-3.1,10.6,10.6,0,0,0,.7-3.8,11,11,0,0,0-.7-3.9,10.2,10.2,0,0,0-1.9-3.2,8.8,8.8,0,0,0-2.8-2.1,7.6,7.6,0,0,0-3.4-.8,7.7,7.7,0,0,0-3.4.8,9,9,0,0,0-2.8,2.1,9.9,9.9,0,0,0-1.9,3.2A11,11,0,0,0,367.3,248Z" transform="translate(-40.3 -52.6)"/>
      <path class="1bf6de9d-9429-4177-8f67-3f79b8d29bf1" d="M397.1,226.5V236h6.4v2.7h-6.4V260h-2.6V238.6h-3.6V236h3.5v-9.4h2.7Z" transform="translate(-40.3 -52.6)"/>
      <path class="1bf6de9d-9429-4177-8f67-3f79b8d29bf1" d="M417,238.2l-0.7-.2h-0.4a4.7,4.7,0,0,0-2,.5,6.7,6.7,0,0,0-1.8,1.2,7.5,7.5,0,0,0-1.4,1.8,8,8,0,0,0-.8,2.1V260h-2.6V238.2a4.9,4.9,0,0,0-.3-1.5,2.1,2.1,0,0,0-.8-1.1h3.7v2.8a7.7,7.7,0,0,1,6.2-3h0.7l0.9,0.2Z" transform="translate(-40.3 -52.6)"/>
      <path class="1bf6de9d-9429-4177-8f67-3f79b8d29bf1" d="M421.4,228.8a1.5,1.5,0,0,1,.5-1.1,1.7,1.7,0,0,1,1.2-.5,1.7,1.7,0,0,1,1.2.5,1.5,1.5,0,0,1,.5,1.1,1.5,1.5,0,0,1-.5,1.1,1.7,1.7,0,0,1-1.2.5,1.7,1.7,0,0,1-1.2-.5A1.5,1.5,0,0,1,421.4,228.8Zm0.4,6.8h2.6V260h-2.6V235.6Z" transform="translate(-40.3 -52.6)"/>
      <path class="1bf6de9d-9429-4177-8f67-3f79b8d29bf1" d="M429.5,257.5l14.4-19.2H429.7v-2.7h17.9v2.5l-14.4,19.2h14.4V260H429.5v-2.5Z" transform="translate(-40.3 -52.6)"/>
      <path class="1bf6de9d-9429-4177-8f67-3f79b8d29bf1" d="M466.9,260h-2.7V226.3h2.7V260Z" transform="translate(-40.3 -52.6)"/>
      <path class="1bf6de9d-9429-4177-8f67-3f79b8d29bf1" d="M473.2,238.2a7.8,7.8,0,0,1,6.3-3,7.5,7.5,0,0,1,3.2.7,8.4,8.4,0,0,1,2.6,1.9,9.3,9.3,0,0,1,1.8,2.9,10.1,10.1,0,0,1,.7,3.5V260h-2.7V244.2a6.4,6.4,0,0,0-.5-2.5,6.7,6.7,0,0,0-1.3-2,5.9,5.9,0,0,0-1.9-1.3,5.7,5.7,0,0,0-2.3-.5,4.7,4.7,0,0,0-2,.5,6.6,6.6,0,0,0-1.8,1.2,8.1,8.1,0,0,0-1.4,1.8,7.5,7.5,0,0,0-.8,2.1V260h-2.6V238.2a4.2,4.2,0,0,0-.2-1.4,2.6,2.6,0,0,0-.5-0.9h3.4v2.4Z" transform="translate(-40.3 -52.6)"/>
      <path class="1bf6de9d-9429-4177-8f67-3f79b8d29bf1" d="M498.4,226.5V236h6.4v2.7h-6.4V260h-2.6V238.6h-3.6V236h3.5v-9.4h2.7Z" transform="translate(-40.3 -52.6)"/>
      <path class="1bf6de9d-9429-4177-8f67-3f79b8d29bf1" d="M518.1,257.8l1.6-.2,1.7-.4,1.6-.6,1.4-.6,1,2.3a18,18,0,0,1-2.9,1.3l-3.1.8h-1.3a8.5,8.5,0,0,1-3.9-.9,10.4,10.4,0,0,1-3.2-2.5,13.2,13.2,0,0,1-2.3-3.7,14.3,14.3,0,0,1-1-4.6v-0.9a15,15,0,0,1,.8-4.9,13.4,13.4,0,0,1,2.1-4,10.5,10.5,0,0,1,3.1-2.7,7.6,7.6,0,0,1,3.8-1,7.9,7.9,0,0,1,3.8,1,10,10,0,0,1,3.1,2.6,12.4,12.4,0,0,1,2,3.9,15.7,15.7,0,0,1,.7,4.9v1.5H510.5a11.6,11.6,0,0,0,.8,3.4,9.8,9.8,0,0,0,1.6,2.8,7.6,7.6,0,0,0,2.3,1.9A6.2,6.2,0,0,0,518.1,257.8Zm6.5-11.3a11.8,11.8,0,0,0-.8-3.4,9.8,9.8,0,0,0-1.6-2.7,7,7,0,0,0-2.2-1.8,5.5,5.5,0,0,0-2.6-.6,5,5,0,0,0-2.5.7,7.3,7.3,0,0,0-2.1,1.8,10.6,10.6,0,0,0-1.6,2.7,13.8,13.8,0,0,0-.9,3.3h14.1Z" transform="translate(-40.3 -52.6)"/>
      <path class="1bf6de9d-9429-4177-8f67-3f79b8d29bf1" d="M540.5,238.2l-0.7-.2h-0.4a4.7,4.7,0,0,0-2,.5,6.7,6.7,0,0,0-1.8,1.2,7.5,7.5,0,0,0-1.4,1.8,8,8,0,0,0-.8,2.1V260h-2.6V238.2a4.9,4.9,0,0,0-.3-1.5,2.1,2.1,0,0,0-.8-1.1h3.7v2.8a7.7,7.7,0,0,1,6.2-3h0.7l0.9,0.2Z" transform="translate(-40.3 -52.6)"/>
      <path class="1bf6de9d-9429-4177-8f67-3f79b8d29bf1" d="M546.7,238.2a7.8,7.8,0,0,1,6.3-3,7.5,7.5,0,0,1,3.2.7,8.4,8.4,0,0,1,2.6,1.9,9.3,9.3,0,0,1,1.8,2.9,10.1,10.1,0,0,1,.7,3.5V260h-2.7V244.2a6.4,6.4,0,0,0-.5-2.5,6.7,6.7,0,0,0-1.3-2,5.9,5.9,0,0,0-1.9-1.3,5.7,5.7,0,0,0-2.3-.5,4.7,4.7,0,0,0-2,.5,6.6,6.6,0,0,0-1.8,1.2,8.1,8.1,0,0,0-1.4,1.8,7.5,7.5,0,0,0-.8,2.1V260h-2.6V238.2a4.2,4.2,0,0,0-.2-1.4,2.6,2.6,0,0,0-.5-0.9h3.4v2.4Z" transform="translate(-40.3 -52.6)"/>
      <path class="1bf6de9d-9429-4177-8f67-3f79b8d29bf1" d="M578.6,258.5a8.9,8.9,0,0,1-2.5,1.4,8.4,8.4,0,0,1-6,0,7.8,7.8,0,0,1-4.2-4,6.9,6.9,0,0,1-.6-2.9,7,7,0,0,1,.7-3,7.3,7.3,0,0,1,1.8-2.4,8.6,8.6,0,0,1,2.6-1.6,9,9,0,0,1,3.2-.6h5.1v-0.7a8.3,8.3,0,0,0-1.3-4.7,4.2,4.2,0,0,0-3.4-2l-2.9.2-2.9.6-0.6-2.5,3.1-.7,3.3-.2a6.5,6.5,0,0,1,2.8.7,7.6,7.6,0,0,1,2.3,1.8,9.3,9.3,0,0,1,1.6,2.7,10.2,10.2,0,0,1,.7,3.3v0.5q0,1.2,0,2.5t0,2.6v2.9q0,1.3,0,2.6t0.1,2.4,0.2,1.8a2.1,2.1,0,0,0,.3,1h-3.4v-1.5Zm0-10.5h-5.1a6.3,6.3,0,0,0-2.2.4,6.1,6.1,0,0,0-1.8,1,4.4,4.4,0,0,0-1.2,1.6,4.6,4.6,0,0,0-.4,2,4.2,4.2,0,0,0,.4,1.9,5.1,5.1,0,0,0,2.8,2.5,5.7,5.7,0,0,0,2.1.4,5.9,5.9,0,0,0,2.1-.4,5.3,5.3,0,0,0,1.7-1,5.3,5.3,0,0,0,1.2-1.5,4.1,4.1,0,0,0,.4-1.9v-4.9Z" transform="translate(-40.3 -52.6)"/>
      <path class="1bf6de9d-9429-4177-8f67-3f79b8d29bf1" d="M602.7,241.3a9.7,9.7,0,0,0-3-2.4,8,8,0,0,0-3.7-.9,8.2,8.2,0,0,0-3.5.8,9.1,9.1,0,0,0-2.9,2.1,10.1,10.1,0,0,0-1.9,3.1,10.5,10.5,0,0,0-.7,3.9,10.3,10.3,0,0,0,.7,3.8,10.1,10.1,0,0,0,1.9,3.1,9,9,0,0,0,2.9,2.1,8.1,8.1,0,0,0,3.5.8,8,8,0,0,0,3.6-.8,9.5,9.5,0,0,0,3-2.3l2,1.9a13.9,13.9,0,0,1-3.9,2.9,10.2,10.2,0,0,1-4.6,1.1,10.5,10.5,0,0,1-4.5-1,12,12,0,0,1-3.7-2.7,13,13,0,0,1-2.5-4,12.7,12.7,0,0,1-.9-4.9,13.1,13.1,0,0,1,3.4-8.9,12,12,0,0,1,3.7-2.7,10.7,10.7,0,0,1,9.3.1,13.5,13.5,0,0,1,3.9,2.9Z" transform="translate(-40.3 -52.6)"/>
      <path class="1bf6de9d-9429-4177-8f67-3f79b8d29bf1" d="M609.1,228.8a1.5,1.5,0,0,1,.5-1.1,1.7,1.7,0,0,1,1.2-.5,1.7,1.7,0,0,1,1.2.5,1.5,1.5,0,0,1,.5,1.1,1.5,1.5,0,0,1-.5,1.1,1.7,1.7,0,0,1-1.2.5,1.7,1.7,0,0,1-1.2-.5A1.5,1.5,0,0,1,609.1,228.8Zm0.4,6.8h2.6V260h-2.6V235.6Z" transform="translate(-40.3 -52.6)"/>
      <path class="1bf6de9d-9429-4177-8f67-3f79b8d29bf1" d="M616.2,248a13.3,13.3,0,0,1,.9-4.9,12.8,12.8,0,0,1,2.5-4,11.8,11.8,0,0,1,3.7-2.7,10.2,10.2,0,0,1,4.4-1,10,10,0,0,1,4.4,1,11.6,11.6,0,0,1,3.6,2.7,13.1,13.1,0,0,1,2.4,4,13.3,13.3,0,0,1,.9,4.9,13.2,13.2,0,0,1-3.3,8.8,11.6,11.6,0,0,1-3.6,2.7,10,10,0,0,1-4.4,1,10.2,10.2,0,0,1-4.4-1,11.8,11.8,0,0,1-3.7-2.7A13,13,0,0,1,616.2,248Zm2.7,0a10.6,10.6,0,0,0,.7,3.8,10,10,0,0,0,1.9,3.1,9,9,0,0,0,2.8,2.1,7.7,7.7,0,0,0,3.4.8,7.6,7.6,0,0,0,3.4-.8,8.7,8.7,0,0,0,2.8-2.1,10.3,10.3,0,0,0,1.9-3.1,10.6,10.6,0,0,0,.7-3.8,11,11,0,0,0-.7-3.9,10.2,10.2,0,0,0-1.9-3.2,8.8,8.8,0,0,0-2.8-2.1,7.6,7.6,0,0,0-3.4-.8,7.7,7.7,0,0,0-3.4.8,9.1,9.1,0,0,0-2.8,2.1,9.9,9.9,0,0,0-1.9,3.2A11,11,0,0,0,618.9,248Z" transform="translate(-40.3 -52.6)"/>
      <path class="1bf6de9d-9429-4177-8f67-3f79b8d29bf1" d="M644.6,238.2a7.8,7.8,0,0,1,6.3-3,7.5,7.5,0,0,1,3.2.7,8.4,8.4,0,0,1,2.6,1.9,9.3,9.3,0,0,1,1.8,2.9,10.1,10.1,0,0,1,.7,3.5V260h-2.7V244.2a6.4,6.4,0,0,0-.5-2.5,6.7,6.7,0,0,0-1.3-2,5.9,5.9,0,0,0-1.9-1.3,5.7,5.7,0,0,0-2.3-.5,4.7,4.7,0,0,0-2,.5,6.6,6.6,0,0,0-1.8,1.2,8.1,8.1,0,0,0-1.4,1.8,7.5,7.5,0,0,0-.8,2.1V260H642V238.2a4.2,4.2,0,0,0-.2-1.4,2.6,2.6,0,0,0-.5-0.9h3.4v2.4Z" transform="translate(-40.3 -52.6)"/>
      <path class="1bf6de9d-9429-4177-8f67-3f79b8d29bf1" d="M676.5,258.5A8.9,8.9,0,0,1,674,260a8.4,8.4,0,0,1-6,0,7.8,7.8,0,0,1-4.2-4,6.9,6.9,0,0,1-.6-2.9,7,7,0,0,1,.7-3,7.3,7.3,0,0,1,1.8-2.4,8.6,8.6,0,0,1,2.6-1.6,9,9,0,0,1,3.2-.6h5.1v-0.7a8.3,8.3,0,0,0-1.3-4.7,4.2,4.2,0,0,0-3.4-2l-2.9.2-2.9.6-0.6-2.5,3.1-.7,3.3-.2a6.5,6.5,0,0,1,2.8.7,7.6,7.6,0,0,1,2.3,1.8,9.3,9.3,0,0,1,1.6,2.7,10.2,10.2,0,0,1,.7,3.3v0.5q0,1.2,0,2.5t0,2.6v2.9q0,1.3,0,2.6t0.1,2.4,0.2,1.8a2.1,2.1,0,0,0,.3,1h-3.4v-1.5Zm0-10.5h-5.1a6.3,6.3,0,0,0-2.2.4,6.1,6.1,0,0,0-1.8,1,4.4,4.4,0,0,0-1.2,1.6,4.6,4.6,0,0,0-.4,2,4.2,4.2,0,0,0,.4,1.9,5.1,5.1,0,0,0,2.8,2.5,5.7,5.7,0,0,0,2.1.4,5.9,5.9,0,0,0,2.1-.4,5.3,5.3,0,0,0,1.7-1,5.3,5.3,0,0,0,1.2-1.5,4.1,4.1,0,0,0,.4-1.9v-4.9Z" transform="translate(-40.3 -52.6)"/>
      <path class="1bf6de9d-9429-4177-8f67-3f79b8d29bf1" d="M684.1,226.5h2.6V260h-2.6V226.5Z" transform="translate(-40.3 -52.6)"/>
    </g>
    <g>
      <path class="f17080b8-4857-494d-b80b-2e67c3edd67d" d="M125.9,82.7a49.6,49.6,0,0,0-13.7-10.4,34.1,34.1,0,0,0-15.4-3.7,35,35,0,0,0-15.6,3.6A40.6,40.6,0,0,0,68.4,82a46.7,46.7,0,0,0-8.6,14.6,50.6,50.6,0,0,0-3.1,18,52,52,0,0,0,3.1,17.9,48,48,0,0,0,8.4,14.7,39.9,39.9,0,0,0,12.7,10,34.9,34.9,0,0,0,16,3.7,33,33,0,0,0,15.2-3.7A54.7,54.7,0,0,0,125.7,147l8.3,8.3a64.3,64.3,0,0,1-17.5,13.1,43.4,43.4,0,0,1-19.8,4.8,44.5,44.5,0,0,1-19.9-4.6,54.4,54.4,0,0,1-16.6-12.7,63,63,0,0,1-11.5-18.7,59.9,59.9,0,0,1-4.3-22.6,60.9,60.9,0,0,1,4.1-22.1A59.4,59.4,0,0,1,59.6,74,54.8,54.8,0,0,1,76.3,61.3a45.8,45.8,0,0,1,40.7.1,58.7,58.7,0,0,1,17.4,13.1Z" transform="translate(-40.3 -52.6)"/>
      <path class="b4b52558-c4df-4b98-a6bb-28aa3c9b4674" d="M183.7,57.2h9.1L235,171.7H222.5l-16.7-45.2H170.9L165.6,141,160,155.8l-3.1,8q-1.7,4.2-3,7.9H141.5Zm17.6,57.1q-1.3-3.8-3.1-8.5L195,97.5v0.2l-1.8-4.7-1.6-4.1L190,84.7q-0.8-2.2-1.8-5.1-1.3,3.1-2.7,6.6t-2.3,6.6V93q-2.3,5.8-4,10.4l-4,10.9h26Z" transform="translate(-40.3 -52.6)"/>
      <path class="b4b52558-c4df-4b98-a6bb-28aa3c9b4674" d="M255.3,171.7H243.2V57.2h12.1V171.7Z" transform="translate(-40.3 -52.6)"/>
    </g>
    <g>
      <path class="a7fe92b9-fef6-4a8d-a7dc-77de5e153f95" d="M315.8,53.2h2.7V88.5h-2.9V59l-5,8.6-5,8.6h-1.7L293.7,59V88.5h-2.8V53.2h2.7l11.3,18.9Z" transform="translate(-40.3 -52.6)"/>
      <path class="a7fe92b9-fef6-4a8d-a7dc-77de5e153f95" d="M322,75.9a13.9,13.9,0,0,1,.9-5.1,13.4,13.4,0,0,1,2.6-4.2,12.3,12.3,0,0,1,3.8-2.8,10.6,10.6,0,0,1,4.6-1,10.5,10.5,0,0,1,4.6,1,12.1,12.1,0,0,1,3.8,2.8,13.7,13.7,0,0,1,2.5,4.2,13.9,13.9,0,0,1,.9,5.1,13.6,13.6,0,0,1-.9,5.1,13.7,13.7,0,0,1-2.5,4.2,12.1,12.1,0,0,1-3.8,2.8,10.5,10.5,0,0,1-4.6,1,10.7,10.7,0,0,1-4.6-1,12.3,12.3,0,0,1-3.8-2.8A13.6,13.6,0,0,1,322,75.9Zm2.8,0a11.1,11.1,0,0,0,.7,4,10.5,10.5,0,0,0,2,3.3,9.4,9.4,0,0,0,2.9,2.2,8,8,0,0,0,3.6.8,7.9,7.9,0,0,0,3.5-.8,9.1,9.1,0,0,0,2.9-2.2,10.8,10.8,0,0,0,1.9-3.3,11.1,11.1,0,0,0,.7-4,11.5,11.5,0,0,0-.7-4.1,10.7,10.7,0,0,0-1.9-3.3,9.2,9.2,0,0,0-2.9-2.2,7.9,7.9,0,0,0-3.5-.8,8,8,0,0,0-3.6.8,9.5,9.5,0,0,0-2.9,2.2,10.4,10.4,0,0,0-2,3.3A11.5,11.5,0,0,0,324.8,75.9Z" transform="translate(-40.3 -52.6)"/>
      <path class="a7fe92b9-fef6-4a8d-a7dc-77de5e153f95" d="M348.1,63H351l8.7,21.3,4.3-10.7L368.4,63h3.1L361,88.5h-2.7Z" transform="translate(-40.3 -52.6)"/>
      <path class="a7fe92b9-fef6-4a8d-a7dc-77de5e153f95" d="M375.3,55.9a1.6,1.6,0,0,1,.5-1.2,1.8,1.8,0,0,1,1.3-.5,1.8,1.8,0,0,1,1.2.5,1.6,1.6,0,0,1,.5,1.2,1.6,1.6,0,0,1-.5,1.2,1.8,1.8,0,0,1-1.2.5,1.7,1.7,0,0,1-1.3-.5A1.6,1.6,0,0,1,375.3,55.9Zm0.4,7.1h2.7V88.5h-2.7V63Z" transform="translate(-40.3 -52.6)"/>
      <path class="a7fe92b9-fef6-4a8d-a7dc-77de5e153f95" d="M384.7,53.5h2.8v35h-2.8v-35Z" transform="translate(-40.3 -52.6)"/>
      <path class="a7fe92b9-fef6-4a8d-a7dc-77de5e153f95" d="M392.6,55.9a1.6,1.6,0,0,1,.5-1.2,1.8,1.8,0,0,1,1.3-.5,1.8,1.8,0,0,1,1.2.5,1.6,1.6,0,0,1,.5,1.2,1.6,1.6,0,0,1-.5,1.2,1.8,1.8,0,0,1-1.2.5,1.7,1.7,0,0,1-1.3-.5A1.6,1.6,0,0,1,392.6,55.9ZM393,63h2.7V88.5H393V63Z" transform="translate(-40.3 -52.6)"/>
      <path class="a7fe92b9-fef6-4a8d-a7dc-77de5e153f95" d="M420.7,87.2a14.5,14.5,0,0,1-3.2,1.1,21.9,21.9,0,0,1-3.8.5,11.6,11.6,0,0,1-4.8-1.1,12.5,12.5,0,0,1-3.9-2.8,13.7,13.7,0,0,1-3.6-9.3,13.4,13.4,0,0,1,3.6-9.1,12.4,12.4,0,0,1,3.9-2.8,11.3,11.3,0,0,1,4.8-1,17.7,17.7,0,0,1,3.8.4,10.4,10.4,0,0,1,3.1,1.2V53.5h2.8V83.4a21,21,0,0,0,.1,2.2q0.1,0.9.3,1.7a1.6,1.6,0,0,0,.6,1.1h-3.7V87.2Zm-6.9-1.1,2.7-.3,2.2-.6a5,5,0,0,0,1.5-.8,1.3,1.3,0,0,0,.5-1V67.8q-0.3-1-2.2-1.7a14.4,14.4,0,0,0-4.8-.7,8.9,8.9,0,0,0-3.7.9,10.3,10.3,0,0,0-3,2.2,10.2,10.2,0,0,0-2,3.2,10.1,10.1,0,0,0-.7,3.8,10.8,10.8,0,0,0,.7,4,10.2,10.2,0,0,0,5.1,5.6A9,9,0,0,0,413.8,86.1Z" transform="translate(-40.3 -52.6)"/>
      <path class="a7fe92b9-fef6-4a8d-a7dc-77de5e153f95" d="M442,86.9a9.3,9.3,0,0,1-2.6,1.5,8.7,8.7,0,0,1-6.3-.1,8.1,8.1,0,0,1-4.4-4.2,7.2,7.2,0,0,1-.7-3.1,7.4,7.4,0,0,1,.7-3.2,7.6,7.6,0,0,1,1.9-2.5,9,9,0,0,1,2.8-1.6,9.4,9.4,0,0,1,3.3-.6H442V72.5a8.6,8.6,0,0,0-1.4-4.9,4.4,4.4,0,0,0-3.6-2.1l-3,.2-3,.6-0.7-2.7,3.3-.7,3.5-.3a6.8,6.8,0,0,1,2.9.7,8,8,0,0,1,2.4,1.9,9.8,9.8,0,0,1,1.7,2.8,10.7,10.7,0,0,1,.7,3.4V72q-0.1,1.3-.1,2.7t-0.1,2.7v3q0,1.4.1,2.8t0.2,2.5,0.3,1.9a2.1,2.1,0,0,0,.4,1H442V86.9Zm0-11h-5.3a6.5,6.5,0,0,0-2.3.4,6.4,6.4,0,0,0-1.9,1,4.6,4.6,0,0,0-1.3,1.6,4.8,4.8,0,0,0-.5,2.1,4.4,4.4,0,0,0,.4,2,5.3,5.3,0,0,0,2.9,2.7,6,6,0,0,0,2.2.4,6.2,6.2,0,0,0,2.2-.4,5.5,5.5,0,0,0,3-2.7,4.2,4.2,0,0,0,.5-2V76Z" transform="translate(-40.3 -52.6)"/>
      <path class="a7fe92b9-fef6-4a8d-a7dc-77de5e153f95" d="M468.6,87.2a14.5,14.5,0,0,1-3.2,1.1,21.9,21.9,0,0,1-3.8.5,11.6,11.6,0,0,1-4.8-1.1,12.5,12.5,0,0,1-3.9-2.8,13.7,13.7,0,0,1-3.6-9.3,13.4,13.4,0,0,1,3.6-9.1,12.4,12.4,0,0,1,3.9-2.8,11.3,11.3,0,0,1,4.8-1,17.7,17.7,0,0,1,3.8.4,10.4,10.4,0,0,1,3.1,1.2V53.5h2.8V83.4a21,21,0,0,0,.1,2.2q0.1,0.9.3,1.7a1.6,1.6,0,0,0,.6,1.1h-3.7V87.2Zm-6.9-1.1,2.7-.3,2.2-.6a5,5,0,0,0,1.5-.8,1.3,1.3,0,0,0,.5-1V67.8q-0.3-1-2.2-1.7a14.4,14.4,0,0,0-4.8-.7,8.9,8.9,0,0,0-3.7.9,10.3,10.3,0,0,0-3,2.2,10.2,10.2,0,0,0-2,3.2,10.1,10.1,0,0,0-.7,3.8,10.8,10.8,0,0,0,.7,4,10.2,10.2,0,0,0,5.1,5.6A9,9,0,0,0,461.7,86.1Z" transform="translate(-40.3 -52.6)"/>
      <path class="a7fe92b9-fef6-4a8d-a7dc-77de5e153f95" d="M508.9,87.2a14.5,14.5,0,0,1-3.2,1.1,21.9,21.9,0,0,1-3.8.5,11.6,11.6,0,0,1-4.8-1.1,12.5,12.5,0,0,1-3.9-2.8,13.7,13.7,0,0,1-3.6-9.3,13.4,13.4,0,0,1,3.6-9.1,12.4,12.4,0,0,1,3.9-2.8,11.3,11.3,0,0,1,4.8-1,17.7,17.7,0,0,1,3.8.4,10.4,10.4,0,0,1,3.1,1.2V53.5h2.8V83.4a21,21,0,0,0,.1,2.2q0.1,0.9.3,1.7a1.6,1.6,0,0,0,.6,1.1h-3.7V87.2ZM502,86.1l2.7-.3,2.2-.6a5,5,0,0,0,1.5-.8,1.3,1.3,0,0,0,.5-1V67.8q-0.3-1-2.2-1.7a14.4,14.4,0,0,0-4.8-.7,8.9,8.9,0,0,0-3.7.9,10.3,10.3,0,0,0-3,2.2,10.2,10.2,0,0,0-2,3.2,10.1,10.1,0,0,0-.7,3.8,10.8,10.8,0,0,0,.7,4,10.2,10.2,0,0,0,5.1,5.6A9,9,0,0,0,502,86.1Z" transform="translate(-40.3 -52.6)"/>
      <path class="a7fe92b9-fef6-4a8d-a7dc-77de5e153f95" d="M526.5,86.2l1.6-.2,1.8-.5,1.7-.6,1.5-.7,1.1,2.4a18.8,18.8,0,0,1-3.1,1.4l-3.3.8h-1.3a8.9,8.9,0,0,1-4-.9,10.9,10.9,0,0,1-3.3-2.6,13.7,13.7,0,0,1-2.4-3.9,14.9,14.9,0,0,1-1.1-4.8V75.8a15.7,15.7,0,0,1,.8-5.1,14,14,0,0,1,2.2-4.2,11,11,0,0,1,3.3-2.8,8,8,0,0,1,4-1,8.2,8.2,0,0,1,4,1,10.4,10.4,0,0,1,3.2,2.7,13,13,0,0,1,2.1,4.1,16.4,16.4,0,0,1,.8,5.1V77H518.6a12.2,12.2,0,0,0,.8,3.6,10.2,10.2,0,0,0,1.7,2.9,7.9,7.9,0,0,0,2.4,1.9A6.5,6.5,0,0,0,526.5,86.2Zm6.8-11.8a12.3,12.3,0,0,0-.8-3.5,10.2,10.2,0,0,0-1.6-2.8,7.4,7.4,0,0,0-2.3-1.9,5.8,5.8,0,0,0-2.7-.7,5.2,5.2,0,0,0-2.6.7,7.6,7.6,0,0,0-2.2,1.9,11.1,11.1,0,0,0-1.6,2.8,14.4,14.4,0,0,0-.9,3.5h14.7Z" transform="translate(-40.3 -52.6)"/>
      <path class="a7fe92b9-fef6-4a8d-a7dc-77de5e153f95" d="M540.7,53.5h2.8v35h-2.8v-35Z" transform="translate(-40.3 -52.6)"/>
      <path class="a7fe92b9-fef6-4a8d-a7dc-77de5e153f95" d="M579.3,71.1H564.1V88.5h-2.8V53.2h20.6v2.6H564.1V68.3h15.2v2.8Z" transform="translate(-40.3 -52.6)"/>
      <path class="a7fe92b9-fef6-4a8d-a7dc-77de5e153f95" d="M601.3,85.8a9.5,9.5,0,0,1-2.9,2.3,7.8,7.8,0,0,1-3.6.9,7.7,7.7,0,0,1-3.3-.7,8.5,8.5,0,0,1-2.7-2,10,10,0,0,1-1.8-3,10.4,10.4,0,0,1-.7-3.6l-0.2-.2V63.1h2.8V79.4a6.7,6.7,0,0,0,.6,2.5,7.8,7.8,0,0,0,1.4,2.1,6.3,6.3,0,0,0,2,1.5,5.5,5.5,0,0,0,2.4.5,5.1,5.1,0,0,0,2.2-.5,6.4,6.4,0,0,0,1.9-1.3,7.7,7.7,0,0,0,1.4-1.9,7.6,7.6,0,0,0,.8-2.2V63h2.8V85.7a5.6,5.6,0,0,0,.3,1.7,2.8,2.8,0,0,0,.5,1.1h-3.5V85.8Z" transform="translate(-40.3 -52.6)"/>
      <path class="a7fe92b9-fef6-4a8d-a7dc-77de5e153f95" d="M615.6,53.5v9.8h6.7v2.8h-6.7V88.5h-2.7V66.1h-3.8V63.3h3.7V53.5h2.8Z" transform="translate(-40.3 -52.6)"/>
      <path class="a7fe92b9-fef6-4a8d-a7dc-77de5e153f95" d="M641.6,85.8a9.5,9.5,0,0,1-2.9,2.3,7.8,7.8,0,0,1-3.6.9,7.7,7.7,0,0,1-3.3-.7,8.5,8.5,0,0,1-2.7-2,10,10,0,0,1-1.8-3,10.4,10.4,0,0,1-.7-3.6l-0.2-.2V63.1h2.8V79.4a6.7,6.7,0,0,0,.6,2.5,7.8,7.8,0,0,0,1.4,2.1,6.3,6.3,0,0,0,2,1.5,5.5,5.5,0,0,0,2.4.5,5.1,5.1,0,0,0,2.2-.5,6.4,6.4,0,0,0,1.9-1.3,7.7,7.7,0,0,0,1.4-1.9,7.6,7.6,0,0,0,.8-2.2V63h2.8V85.7a5.6,5.6,0,0,0,.3,1.7,2.8,2.8,0,0,0,.5,1.1h-3.5V85.8Z" transform="translate(-40.3 -52.6)"/>
      <path class="a7fe92b9-fef6-4a8d-a7dc-77de5e153f95" d="M659.3,65.7l-0.7-.2h-0.5a4.9,4.9,0,0,0-2.1.5,7,7,0,0,0-1.9,1.3,7.9,7.9,0,0,0-1.4,1.9,8.3,8.3,0,0,0-.8,2.2V88.5h-2.8V65.7a5.1,5.1,0,0,0-.3-1.6,2.2,2.2,0,0,0-.8-1.2h3.9v2.9a8,8,0,0,1,6.5-3.2h0.7l0.9,0.2Z" transform="translate(-40.3 -52.6)"/>
      <path class="a7fe92b9-fef6-4a8d-a7dc-77de5e153f95" d="M662.2,75.9a13.9,13.9,0,0,1,.9-5.1,13.4,13.4,0,0,1,2.6-4.2,12.3,12.3,0,0,1,3.8-2.8,10.6,10.6,0,0,1,4.6-1,10.5,10.5,0,0,1,4.6,1,12.1,12.1,0,0,1,3.8,2.8,13.7,13.7,0,0,1,2.5,4.2,13.9,13.9,0,0,1,.9,5.1,13.8,13.8,0,0,1-3.5,9.2,12.1,12.1,0,0,1-3.8,2.8,10.5,10.5,0,0,1-4.6,1,10.7,10.7,0,0,1-4.6-1,12.3,12.3,0,0,1-3.8-2.8A13.6,13.6,0,0,1,662.2,75.9Zm2.8,0a11.1,11.1,0,0,0,.7,4,10.5,10.5,0,0,0,2,3.3,9.4,9.4,0,0,0,2.9,2.2,8,8,0,0,0,3.6.8,7.9,7.9,0,0,0,3.5-.8,9.1,9.1,0,0,0,2.9-2.2,10.8,10.8,0,0,0,1.9-3.3,11.1,11.1,0,0,0,.7-4,11.5,11.5,0,0,0-.7-4.1,10.7,10.7,0,0,0-1.9-3.3,9.2,9.2,0,0,0-2.9-2.2,7.9,7.9,0,0,0-3.5-.8,8,8,0,0,0-3.6.8,9.5,9.5,0,0,0-2.9,2.2,10.4,10.4,0,0,0-2,3.3A11.5,11.5,0,0,0,665,75.9Z" transform="translate(-40.3 -52.6)"/>
    </g>
    <g>
      <path class="a7fe92b9-fef6-4a8d-a7dc-77de5e153f95" d="M309.1,168.9H292.4V112.5h18.2a16.3,16.3,0,0,1,10.7,4.3,14,14,0,0,1,3.3,4.5,12.6,12.6,0,0,1,1.2,5.3,13.1,13.1,0,0,1-2,7.1,16.1,16.1,0,0,1-5.2,5.2,15.4,15.4,0,0,1,6.2,5.7,15,15,0,0,1,2.2,8,15.2,15.2,0,0,1-1.3,6.2,15.9,15.9,0,0,1-3.5,5.1,17.1,17.1,0,0,1-5.2,3.5,16.7,16.7,0,0,1-6.4,1.4h0.1Zm-12.3-52v19.8h13.7a12.6,12.6,0,0,0,4.2-.9,10.5,10.5,0,0,0,3.4-2.1,9.9,9.9,0,0,0,2.2-3.1,9.3,9.3,0,0,0,.8-3.9,8.3,8.3,0,0,0-.8-3.6,10.2,10.2,0,0,0-2.2-3.1,11.1,11.1,0,0,0-3.4-2.2,13.5,13.5,0,0,0-4.2-1H296.8Zm13.7,47.5a12,12,0,0,0,4.6-1.1,12.6,12.6,0,0,0,3.7-2.6,12.3,12.3,0,0,0,2.5-3.7,10.7,10.7,0,0,0,.9-4.4,10,10,0,0,0-.9-4.2,11.9,11.9,0,0,0-2.5-3.6,13,13,0,0,0-3.7-2.5,13.2,13.2,0,0,0-4.6-1.1H296.8v23.2h13.7Z" transform="translate(-40.3 -52.6)"/>
      <path class="a7fe92b9-fef6-4a8d-a7dc-77de5e153f95" d="M331.6,148.7a22.3,22.3,0,0,1,1.5-8.2,21.4,21.4,0,0,1,4.1-6.7,19.7,19.7,0,0,1,6.1-4.5,17,17,0,0,1,7.4-1.7,16.8,16.8,0,0,1,7.4,1.7,19.4,19.4,0,0,1,6,4.5,21.9,21.9,0,0,1,4.1,6.7,22.3,22.3,0,0,1,1.5,8.2,21.7,21.7,0,0,1-1.5,8.1,22,22,0,0,1-4.1,6.6,19.3,19.3,0,0,1-6,4.5,16.8,16.8,0,0,1-7.4,1.7,17,17,0,0,1-7.4-1.7,19.6,19.6,0,0,1-6.1-4.5A21.8,21.8,0,0,1,331.6,148.7Zm4.5,0a17.7,17.7,0,0,0,1.1,6.4,16.8,16.8,0,0,0,3.1,5.2,15.1,15.1,0,0,0,4.6,3.5,12.8,12.8,0,0,0,5.7,1.3,12.7,12.7,0,0,0,5.7-1.3,14.6,14.6,0,0,0,4.6-3.5,17.2,17.2,0,0,0,3.1-5.2,17.7,17.7,0,0,0,1.1-6.4,18.4,18.4,0,0,0-1.1-6.5,17,17,0,0,0-3.1-5.3,14.7,14.7,0,0,0-4.6-3.5,12.7,12.7,0,0,0-5.7-1.3,12.8,12.8,0,0,0-5.7,1.3,15.1,15.1,0,0,0-4.6,3.5,16.6,16.6,0,0,0-3.1,5.3A18.4,18.4,0,0,0,336.1,148.7Z" transform="translate(-40.3 -52.6)"/>
      <path class="a7fe92b9-fef6-4a8d-a7dc-77de5e153f95" d="M388.8,158.6l1-.2h1a20,20,0,0,1,6.4,1,17.6,17.6,0,0,1,5.3,2.8,13.3,13.3,0,0,1,3.5,4.2,10.5,10.5,0,0,1,1.3,5.1,10.8,10.8,0,0,1-1.3,5.1,13.6,13.6,0,0,1-3.5,4.2,17.8,17.8,0,0,1-5.3,2.9,19.3,19.3,0,0,1-6.4,1.1,18.7,18.7,0,0,1-6.3-1.1,17.9,17.9,0,0,1-5.2-2.9,13.5,13.5,0,0,1-3.5-4.2,10.7,10.7,0,0,1,.9-11.7,14.8,14.8,0,0,1,5.7-4.6,9.3,9.3,0,0,1-.6-3.5,6.2,6.2,0,0,1,1.3-4.2,12.7,12.7,0,0,1-5.5-10.8,12.5,12.5,0,0,1,1.3-5.5,14.1,14.1,0,0,1,3.5-4.5,17.2,17.2,0,0,1,5.2-3.1,17.7,17.7,0,0,1,6.4-1.1l3.3,0.2,2.8,0.7h14.8l-4.2,4.4h-3.8a15.6,15.6,0,0,1,2.5,4.1,12.6,12.6,0,0,1-.3,10.4,14.1,14.1,0,0,1-3.5,4.5,17,17,0,0,1-5.2,3,18.3,18.3,0,0,1-6.4,1.1l-2.1-.2-1.8-.3-2.5-.4a3.3,3.3,0,0,0-1.4.3,1.2,1.2,0,0,0-.7,1.2,1.7,1.7,0,0,0,.7,1.7,3.8,3.8,0,0,0,1.5.3h1.2Zm-10.1,12.9a6.6,6.6,0,0,0,1,3.4,9.8,9.8,0,0,0,2.6,2.9,14.3,14.3,0,0,0,8.4,2.7,15.5,15.5,0,0,0,4.8-.7,13.9,13.9,0,0,0,3.9-2,9.3,9.3,0,0,0,2.6-2.9,6.7,6.7,0,0,0,0-6.8,9.3,9.3,0,0,0-2.6-2.9,13.9,13.9,0,0,0-3.9-2,15.5,15.5,0,0,0-4.8-.7,14.3,14.3,0,0,0-8.4,2.7,9.8,9.8,0,0,0-2.6,2.9A6.6,6.6,0,0,0,378.7,171.5Zm3.3-29.6a8.1,8.1,0,0,0,.9,3.8,10.1,10.1,0,0,0,2.6,3.1,12.5,12.5,0,0,0,3.8,2.1,13.5,13.5,0,0,0,4.6.8,14.5,14.5,0,0,0,4.8-.8,12.4,12.4,0,0,0,3.9-2.1,10.1,10.1,0,0,0,2.6-3.1,8.1,8.1,0,0,0,.9-3.8,8.3,8.3,0,0,0-.9-3.9,10.1,10.1,0,0,0-2.6-3.1,12.4,12.4,0,0,0-3.9-2.1,14.5,14.5,0,0,0-4.8-.8,13.5,13.5,0,0,0-4.6.8,12.6,12.6,0,0,0-3.8,2.1,10.1,10.1,0,0,0-2.6,3.1A8.3,8.3,0,0,0,382,141.9Z" transform="translate(-40.3 -52.6)"/>
      <path class="a7fe92b9-fef6-4a8d-a7dc-77de5e153f95" d="M418.3,148.7a22.3,22.3,0,0,1,1.5-8.2,21.4,21.4,0,0,1,4.1-6.7,19.7,19.7,0,0,1,6.1-4.5,17,17,0,0,1,7.4-1.7,16.8,16.8,0,0,1,7.4,1.7,19.4,19.4,0,0,1,6,4.5,21.9,21.9,0,0,1,4.1,6.7,22.3,22.3,0,0,1,1.5,8.2,21.7,21.7,0,0,1-1.5,8.1,22,22,0,0,1-4.1,6.6,19.3,19.3,0,0,1-6,4.5,16.8,16.8,0,0,1-7.4,1.7,17,17,0,0,1-7.4-1.7,19.6,19.6,0,0,1-6.1-4.5A21.8,21.8,0,0,1,418.3,148.7Zm4.5,0a17.7,17.7,0,0,0,1.1,6.4,16.8,16.8,0,0,0,3.1,5.2,15.1,15.1,0,0,0,4.6,3.5,12.8,12.8,0,0,0,5.7,1.3,12.6,12.6,0,0,0,5.7-1.3,14.6,14.6,0,0,0,4.6-3.5,17.3,17.3,0,0,0,3.1-5.2,17.7,17.7,0,0,0,1.1-6.4,18.4,18.4,0,0,0-1.1-6.5,17.1,17.1,0,0,0-3.1-5.3,14.7,14.7,0,0,0-4.6-3.5,12.7,12.7,0,0,0-5.7-1.3,12.8,12.8,0,0,0-5.7,1.3,15.1,15.1,0,0,0-4.6,3.5,16.6,16.6,0,0,0-3.1,5.3A18.3,18.3,0,0,0,422.8,148.7Z" transform="translate(-40.3 -52.6)"/>
      <path class="a7fe92b9-fef6-4a8d-a7dc-77de5e153f95" d="M472.7,112.9v15.7h10.7v4.5H472.7v35.7h-4.3V133.2h-6v-4.5h5.9V112.9h4.5Z" transform="translate(-40.3 -52.6)"/>
      <path class="a7fe92b9-fef6-4a8d-a7dc-77de5e153f95" d="M511.6,166.4a14.9,14.9,0,0,1-4.1,2.4,14,14,0,0,1-10.1-.1,13,13,0,0,1-7.1-6.7,11.5,11.5,0,0,1-1.1-4.9,11.7,11.7,0,0,1,1.1-5.1,12.1,12.1,0,0,1,3-4,14.3,14.3,0,0,1,4.4-2.6,15,15,0,0,1,5.3-.9h8.5v-1.1a13.8,13.8,0,0,0-2.2-7.9,7,7,0,0,0-5.7-3.4,36,36,0,0,0-9.6,1.3l-1.1-4.2a40.5,40.5,0,0,1,5.2-1.1,37,37,0,0,1,5.5-.4,10.8,10.8,0,0,1,4.6,1.2,12.7,12.7,0,0,1,3.8,3,15.6,15.6,0,0,1,2.7,4.4,17.1,17.1,0,0,1,1.2,5.5v0.8q-0.1,2-.1,4.2t-0.1,4.3v4.8q0,2.2.1,4.4t0.2,4q0.2,1.8.4,3a3.4,3.4,0,0,0,.6,1.6h-5.6v-2.4Zm0-17.5h-8.5a10.5,10.5,0,0,0-3.6.6,10.3,10.3,0,0,0-3,1.7,7.4,7.4,0,0,0-2,2.6,7.7,7.7,0,0,0-.7,3.3,7.1,7.1,0,0,0,.7,3.1,8.5,8.5,0,0,0,4.6,4.2,9.6,9.6,0,0,0,3.5.6,9.9,9.9,0,0,0,3.5-.6,8.9,8.9,0,0,0,2.9-1.7,8.8,8.8,0,0,0,2-2.5,6.8,6.8,0,0,0,.7-3.1v-8.2ZM502.9,125h-3.1l6-8h7Z" transform="translate(-40.3 -52.6)"/>
      <path class="a7fe92b9-fef6-4a8d-a7dc-77de5e153f95" d="M550.8,164.4h24.7v4.4h-31v-4.1l23.2-26a13.2,13.2,0,0,0,2.4-3.9,12.9,12.9,0,0,0-.2-9.9,13,13,0,0,0-7.1-6.9,13.7,13.7,0,0,0-5.3-1,12.5,12.5,0,0,0-5.1,1.1,16.5,16.5,0,0,0-4.5,3l-3.2-3.2a24.6,24.6,0,0,1,5.9-3.9,16.1,16.1,0,0,1,6.8-1.5,17.5,17.5,0,0,1,6.9,1.4,18.2,18.2,0,0,1,5.7,3.8,17.7,17.7,0,0,1,3.8,5.6,16.8,16.8,0,0,1,1.4,6.8,16.2,16.2,0,0,1-1.3,6.5,17.6,17.6,0,0,1-3.5,5.3Z" transform="translate(-40.3 -52.6)"/>
      <path class="a7fe92b9-fef6-4a8d-a7dc-77de5e153f95" d="M582.2,141.1a36.9,36.9,0,0,1,1.6-11.1,30.5,30.5,0,0,1,4.4-9,22.2,22.2,0,0,1,6.6-6.1,15.5,15.5,0,0,1,8-2.2,15.3,15.3,0,0,1,8,2.2,22.4,22.4,0,0,1,6.6,6.1,29.9,29.9,0,0,1,4.4,9,37.8,37.8,0,0,1,1.6,11.1,37.4,37.4,0,0,1-1.6,11,31,31,0,0,1-4.4,9.1,22,22,0,0,1-6.6,6.2,15.3,15.3,0,0,1-8,2.2,15.5,15.5,0,0,1-8-2.2,21.8,21.8,0,0,1-6.6-6.2,31.8,31.8,0,0,1-4.4-9.1A36.5,36.5,0,0,1,582.2,141.1Zm4.5,0a32.7,32.7,0,0,0,1.3,9.4,27.7,27.7,0,0,0,3.5,7.6,17.7,17.7,0,0,0,5.1,5.1,11.4,11.4,0,0,0,6.3,1.9,11.6,11.6,0,0,0,6.4-1.9,17.3,17.3,0,0,0,5.1-5.1,27.7,27.7,0,0,0,3.4-7.6,35.4,35.4,0,0,0,0-18.7,27.7,27.7,0,0,0-3.4-7.6,17.3,17.3,0,0,0-5.1-5.1,11.6,11.6,0,0,0-6.4-1.9,11.5,11.5,0,0,0-6.3,1.9,17.8,17.8,0,0,0-5.1,5.1,27.7,27.7,0,0,0-3.5,7.6A32.4,32.4,0,0,0,586.7,141.1Z" transform="translate(-40.3 -52.6)"/>
      <path class="a7fe92b9-fef6-4a8d-a7dc-77de5e153f95" d="M629.1,121.7l10.6-8.8h4.1v55.9h-4.5v-50l-3.6,3-3.5,2.9Z" transform="translate(-40.3 -52.6)"/>
      <path class="a7fe92b9-fef6-4a8d-a7dc-77de5e153f95" d="M686.6,152.6a16.6,16.6,0,0,1-1.3,6.7,16.4,16.4,0,0,1-3.7,5.3,17.5,17.5,0,0,1-5.4,3.5,17.1,17.1,0,0,1-6.7,1.3,16.2,16.2,0,0,1-6.4-1.3,16.8,16.8,0,0,1-5.3-3.5,17.5,17.5,0,0,1-5.2-11.9h0q-0.2-2.6-.3-5.5t0-5.5v-1.7q0-3.6.2-6.8a41.8,41.8,0,0,1,.9-6.2,18.2,18.2,0,0,1,2.1-5.7,17.6,17.6,0,0,1,3.7-4.6,18.6,18.6,0,0,1,5.1-3.1,16.4,16.4,0,0,1,6-1.3,18.1,18.1,0,0,1,8.3,2,19.5,19.5,0,0,1,6.7,5.7l-4.3,2.6a14.5,14.5,0,0,0-4.7-4.2,11.8,11.8,0,0,0-5.9-1.6,12.2,12.2,0,0,0-4.5.9,13.1,13.1,0,0,0-3.9,2.4,13.6,13.6,0,0,0-2.9,3.6,14,14,0,0,0-1.6,4.6,53.4,53.4,0,0,0-.8,6.2q-0.2,3.2-.2,6.6v0.7a15.6,15.6,0,0,1,5.4-4.6,17.2,17.2,0,0,1,7.3-1.9,18.1,18.1,0,0,1,6.6,1.2,17.6,17.6,0,0,1,5.5,3.4,17.2,17.2,0,0,1,3.9,5.2,14.9,14.9,0,0,1,1.5,6.6v0.7Zm-4.3-.6a12.6,12.6,0,0,0-1.1-4.8,12.4,12.4,0,0,0-2.7-3.9,12.6,12.6,0,0,0-4-2.6,13.1,13.1,0,0,0-4.9-.9,11.7,11.7,0,0,0-5,1.1,12.6,12.6,0,0,0-4,2.9,13.1,13.1,0,0,0-2.6,4.2,13.4,13.4,0,0,0-.9,5,11.4,11.4,0,0,0,1,4.8,12.4,12.4,0,0,0,2.8,3.9,13.5,13.5,0,0,0,4,2.6,12.1,12.1,0,0,0,4.8,1,12.3,12.3,0,0,0,4.9-1,12.6,12.6,0,0,0,4-2.7,13.4,13.4,0,0,0,2.7-4,11.4,11.4,0,0,0,1-4.8v-0.7Z" transform="translate(-40.3 -52.6)"/>
    </g>
    <rect class="3fcd526b-18f1-4457-83a7-df75fa87f52c" y="150" width="645.5" height="6.35"/>
  </g>
</svg>
