<?xml version="1.0" standalone="no"?>
<!DOCTYPE svg PUBLIC "-//W3C//DTD SVG 1.1//EN" "http://www.w3.org/Graphics/SVG/1.1/DTD/svg11.dtd" >
<svg>
<metadata>
Created by FontForge 20120731 at Wed Aug 31 15:30:54 2016
 By www
Llice`ncia gratui:ta / Free License (La Tipomatika)
</metadata>
<defs>
<font id="CicleSemi" horiz-adv-x="690" >
  <font-face 
    font-family="Cicle Semi"
    font-weight="400"
    font-stretch="normal"
    units-per-em="1000"
    panose-1="2 0 0 0 0 0 0 0 0 0"
    ascent="800"
    descent="-200"
    x-height="500"
    cap-height="691"
    bbox="-42 -195 1008 863"
    underline-thickness="50"
    underline-position="-50"
    unicode-range="U+0020-FB02"
  />
<missing-glyph horiz-adv-x="257" 
 />
    <glyph glyph-name=".notdef" horiz-adv-x="257" 
 />
    <glyph glyph-name=".null" horiz-adv-x="0" 
 />
    <glyph glyph-name="nonmarkingreturn" horiz-adv-x="257" 
 />
    <glyph glyph-name="space" unicode=" " horiz-adv-x="257" 
 />
    <glyph glyph-name="space" unicode="&#xa0;" horiz-adv-x="257" 
 />
    <glyph glyph-name="e" unicode="e" horiz-adv-x="456" 
d="M237 45q15 0 32 3.5t34.5 9t33.5 12.5t29 13l21 -48q-29 -16 -60 -26.5t-64 -16.5q-6 -1 -13 -1h-13q-42 0 -79 18.5t-65.5 51t-46.5 76.5t-21 94v18q0 53 16 100t43.5 82t64 55.5t77.5 20.5q42 0 78 -19.5t63 -53.5t42 -80t15 -100v-30h-343q3 -38 16 -70.5t33.5 -56.5
t48 -38t58.5 -14zM371 277q-3 37 -15.5 69t-32 55.5t-44.5 36.5t-53 13q-27 0 -51 -13.5t-43 -37t-32 -55.5t-18 -68h289z" />
    <glyph glyph-name="f" unicode="f" horiz-adv-x="328" 
d="M293 632q-13 3 -22.5 3.5t-17.5 0.5q-20 -1 -37.5 -11t-30 -27.5t-20 -40.5t-7.5 -49v-19h128v-55h-128v-434h-52v434h-73v55h72q0 2 -0.5 5t-0.5 6v7v12q2 35 14.5 66t32.5 54.5t46.5 37t55.5 13.5q14 0 26 -0.5t30 -2.5z" />
    <glyph glyph-name="g" unicode="g" horiz-adv-x="551" 
d="M208 126q5 2 12 2h12q42 0 79 -12.5t64.5 -34t43.5 -51t16 -62.5t-16 -63t-43.5 -52t-64.5 -35t-79 -13q-41 0 -77.5 13t-64 35t-43.5 52t-16 63q0 43 27.5 80t70.5 57q-7 17 -7 43q0 32 16 51q-68 50 -68 132q0 36 15.5 68t42.5 55.5t63.5 37.5t78.5 14q23 0 40.5 -3
t34.5 -8h182l-52 -54h-47q19 -22 31 -50t12 -60q0 -36 -16 -68t-43 -55t-63.5 -36.5t-78.5 -13.5q-14 0 -26 2t-22 4q-20 5 -31 5q-9 0 -17.5 -4t-8.5 -15q0 -17 9 -21t19 -4q2 0 5 0.5t5 0.5h5zM84 -32q0 -22 12 -42t32.5 -35t47 -24t56.5 -9q32 0 59.5 9t48 24t32 35
t11.5 42t-11.5 42t-32 35t-48 24t-59.5 9q-30 0 -56.5 -9t-47 -24t-32.5 -35t-12 -42zM124 331q0 -25 11.5 -47t31.5 -38.5t46.5 -26t56.5 -9.5q31 0 58.5 9.5t47.5 26t31.5 38.5t11.5 47q0 26 -11.5 48t-31.5 38.5t-47.5 26t-58.5 9.5q-30 0 -56.5 -9.5t-46.5 -26
t-31.5 -38.5t-11.5 -48z" />
    <glyph glyph-name="p" unicode="p" horiz-adv-x="506" 
d="M90 93q3 -9 15 -17.5t30.5 -14.5t42.5 -10t51 -5q39 1 73 17.5t59.5 44t40 65t14.5 79.5t-14.5 78.5t-40 63.5t-59.5 43t-73 16q-29 0 -54.5 -4t-44 -10.5t-29.5 -15.5t-11 -19v-311zM90 476q26 13 63 23t76 10q50 -1 94 -21.5t76.5 -55.5t51.5 -81.5t19 -98.5
q0 -54 -19 -101.5t-51.5 -82.5t-76.5 -55.5t-94 -20.5q-41 0 -76.5 8.5t-61.5 23.5v-214h-54v594q-1 22 -3 41q-2 17 -5.5 32t-9.5 22h71v-23z" />
    <glyph glyph-name="y" unicode="y" horiz-adv-x="535" 
d="M56 -133q6 -6 16.5 -7t20.5 -1q32 0 63 22t47 64q10 24 19 47t19 47q-47 115 -94.5 233.5t-95.5 233.5h58l159 -398q39 98 79 198.5t79 199.5h58l-190 -468l1 1q-11 -29 -22 -57t-21 -57q-11 -29 -28.5 -51t-39 -37.5t-45.5 -23.5t-48 -8q-22 0 -43 6z" />
    <glyph glyph-name="R" unicode="R" horiz-adv-x="474" 
d="M94 330v-330h-55v691h201q41 0 77.5 -13.5t63.5 -37t42.5 -55.5t15.5 -68q0 -37 -15.5 -69t-42.5 -56t-63.5 -38t-77.5 -14h-83q72 -82 150.5 -170.5t149.5 -169.5h-71zM94 639v-244h146q29 0 55.5 9.5t46 26t31 38.5t11.5 48q0 25 -11.5 47t-31.5 38.5t-46.5 26.5
t-56.5 10h-144z" />
    <glyph glyph-name="d" unicode="d" horiz-adv-x="534" 
d="M290 47q28 1 52.5 6t43 12t29 16t10.5 19v305q-5 19 -43 32.5t-94 13.5q-39 -1 -73 -17.5t-59.5 -43.5t-40 -62.5t-14.5 -75.5q0 -41 14.5 -78t40 -64.5t60 -44.5t74.5 -18zM425 25q-26 -13 -62.5 -21.5t-74.5 -10.5q-50 1 -93.5 21.5t-76 55.5t-51.5 82t-19 100
q0 52 19 98.5t51.5 81t76 54.5t93.5 20q42 0 75.5 -7.5t61.5 -24.5v212h54v-586q0 -24 2 -43q2 -17 5.5 -33t11.5 -21h-73v22z" />
    <glyph glyph-name="h" unicode="h" horiz-adv-x="455" 
d="M96 688v-242q25 29 57 45t72 16q36 0 66.5 -14.5t53.5 -39.5t36 -58.5t14 -71.5l3 -320h-54v320q-1 27 -11.5 51t-27 41.5t-39 27.5t-47.5 10q-21 0 -41 -9.5t-36.5 -25.5t-28.5 -37t-17 -44v-337h-54v688h54z" />
    <glyph glyph-name="i" unicode="i" horiz-adv-x="177" 
d="M59 500h53v-500h-53v500zM51 639q0 14 10 23.5t25 9.5q14 0 24.5 -9.5t10.5 -23.5q0 -13 -10.5 -23t-24.5 -10q-15 0 -25 10t-10 23z" />
    <glyph glyph-name="j" unicode="j" horiz-adv-x="354" 
d="M187 634q0 15 9 24t25 9q11 0 21.5 -9t10.5 -24q0 -14 -10.5 -23.5t-21.5 -9.5q-16 0 -25 9.5t-9 23.5zM51 -137q11 0 18 -0.5t12 -1.5q4 -1 7.5 -1h5.5v2l1 1q21 0 39 10t31.5 26.5t21.5 39t8 47.5v515h54v-524q-2 -35 -14.5 -65t-32 -53t-46 -37t-56.5 -15
q-8 0 -16 0.5t-16 1.5q-5 1 -8.5 1.5t-13.5 0.5z" />
    <glyph glyph-name="k" unicode="k" horiz-adv-x="440" 
d="M111 346q45 37 89 74.5t87 73.5h84l-158 -131q51 -88 104 -181.5t104 -181.5h-64l-186 327q-14 -13 -29 -26t-31 -26v-275h-69q5 5 10 19t5 32v635h54v-340z" />
    <glyph glyph-name="l" unicode="l" horiz-adv-x="162" 
d="M59 686h54v-686h-54v686z" />
    <glyph glyph-name="m" unicode="m" horiz-adv-x="739" 
d="M93 444q25 29 57 45t70 16q49 0 88.5 -27.5t62.5 -69.5q12 26 29 45t37.5 31t42 17.5t41.5 5.5q35 0 65.5 -14.5t53.5 -39t36.5 -58t14.5 -72.5l2 -321h-55v321q-1 27 -10.5 50.5t-26 41t-38 27.5t-46.5 10q-23 0 -43.5 -9.5t-37 -25t-28 -36.5t-15.5 -44v-335h-54v319
q-1 27 -11 51t-26.5 41t-39 27t-47.5 10q-22 0 -42 -9.5t-36 -25t-27.5 -36.5t-16.5 -44v-335h-54v446q0 15 -5 32t-10 22h69v-56z" />
    <glyph glyph-name="n" unicode="n" horiz-adv-x="433" 
d="M89 446q51 62 129 62q35 0 66 -14.5t54 -39.5t36.5 -58.5t14.5 -72.5l2 -323h-55v323q0 27 -10 51t-26.5 41.5t-39 27.5t-47.5 10q-22 0 -42 -9.5t-36.5 -25.5t-28.5 -37t-17 -44v-337h-54v448q0 15 -5 29t-10 19h69v-50z" />
    <glyph glyph-name="o" unicode="o" horiz-adv-x="513" 
d="M74 247q0 -42 14 -78.5t38.5 -64t57 -43.5t70.5 -16q37 0 69.5 16t56.5 43.5t38 64t14 78.5t-14 79.5t-38 65t-56.5 43.5t-69.5 16q-38 0 -70.5 -16t-57 -43.5t-38.5 -65t-14 -79.5zM19 247q0 54 18.5 101t50.5 82t75 55.5t91 20.5t90.5 -20.5t74 -55.5t50 -82t18.5 -101
q0 -53 -18.5 -99.5t-50 -81.5t-74 -55.5t-90.5 -20.5t-91 20.5t-75 55.5t-50.5 81.5t-18.5 99.5z" />
    <glyph glyph-name="q" unicode="q" horiz-adv-x="513" 
d="M401 494h53v-684h-53v232q-26 -17 -60 -24.5t-75 -7.5q-47 1 -89.5 21t-74 53.5t-50 78t-18.5 95.5t18.5 96t50 79t74 53.5t89.5 19.5q85 0 135 -29v17zM401 404q0 10 -10.5 19t-29 15.5t-43 10.5t-52.5 4q-37 0 -69.5 -15.5t-57 -41.5t-38.5 -62t-14 -76q0 -41 14 -76
t38.5 -61.5t57 -42t69.5 -16.5q53 0 90.5 14.5t44.5 32.5v295z" />
    <glyph glyph-name="r" unicode="r" horiz-adv-x="279" 
d="M240 447q-10 3 -14 3.5t-9 0.5q-22 0 -42 -9.5t-36.5 -25.5t-28 -37t-16.5 -44v-335h-54v446q0 15 -5.5 31.5t-16.5 23.5h76v-57q50 62 128 62q6 0 14 -0.5t18 -4.5z" />
    <glyph glyph-name="s" unicode="s" horiz-adv-x="417" 
d="M334 405q-23 22 -55 33.5t-67 11.5q-47 0 -78.5 -21t-31.5 -55q0 -17 8.5 -32.5t24 -28.5t36.5 -22t46 -13q34 -5 63 -19t50 -34.5t33 -45.5t12 -52q0 -30 -13 -55t-35.5 -42.5t-52.5 -27.5t-64 -10q-46 0 -91 18.5t-73 52.5l41 32q21 -21 53 -35t67 -14q24 0 44.5 6
t36 16.5t24.5 25.5t9 33q0 16 -9.5 32t-25 29.5t-36.5 23.5t-43 15q-33 5 -62.5 19.5t-51 34.5t-34 44.5t-12.5 49.5q0 29 13.5 53t37 41t54 26.5t64.5 9.5q47 0 90 -19t72 -49z" />
    <glyph glyph-name="t" unicode="t" horiz-adv-x="340" 
d="M173 686v-193h131v-55h-131v-438h-53v438h-74v55h72v193h55z" />
    <glyph glyph-name="u" unicode="u" horiz-adv-x="450" 
d="M343 53q-24 -28 -57 -45t-71 -17q-35 0 -65.5 14.5t-53 39.5t-36 58.5t-14.5 71.5q-1 2 -3 4v319h54v-316l1 -5q1 -26 11.5 -49.5t27 -41.5t38.5 -28.5t47 -10.5q22 0 42.5 9.5t36.5 25.5t27 37t15 44v337h54v-446q0 -17 5 -33t10 -21h-69v53z" />
    <glyph glyph-name="v" unicode="v" horiz-adv-x="500" 
d="M18 500h57l171 -418q42 105 84.5 209.5t84.5 208.5h60l-204 -500h-52z" />
    <glyph glyph-name="w" unicode="w" horiz-adv-x="705" 
d="M468 0l-53 3l-71 179q-19 -45 -38.5 -91t-38.5 -91l-51 3l-202 497h58l170 -417q17 44 35 86t35 87q-23 60 -49 122.5t-49 121.5h62l167 -417q42 103 84.5 208.5t84.5 208.5h60z" />
    <glyph glyph-name="x" unicode="x" horiz-adv-x="444" 
d="M27 500h68l121 -194q29 48 62 98t62 96h67l-156 -249q37 -60 78 -125.5t78 -125.5h-66l-128 203q-32 -51 -63 -101.5t-62 -101.5h-66l158 259z" />
    <glyph glyph-name="z" unicode="z" horiz-adv-x="452" 
d="M41 52l296 393h-293v55h368v-52l-296 -393h296v-55h-371v52z" />
    <glyph glyph-name="A" unicode="A" horiz-adv-x="596" 
d="M396 336q-25 67 -47.5 126.5t-47.5 127.5q-24 -66 -47 -127t-47 -127h189zM279 691h45l254 -691h-57l-105 281h-229q-25 -69 -52 -140.5t-53 -140.5h-57z" />
    <glyph glyph-name="B" unicode="B" horiz-adv-x="512" 
d="M255 0h-206v691h223q39 -1 72.5 -15t59 -37.5t40 -55t14.5 -65.5q0 -48 -25 -87.5t-64 -63.5q48 -25 75.5 -70t27.5 -98q0 -40 -15.5 -75.5t-42.5 -62t-63.5 -42.5t-78.5 -17h1zM104 638v-243h168q28 1 52 10.5t41.5 26t27.5 38.5t10 48q0 23 -10 44t-27.5 37.5
t-41.5 26.5t-52 12h-168zM272 55q30 1 56.5 13t46 31.5t31 45t11.5 54.5q0 27 -11.5 52t-31 44t-46 31t-56.5 14h-168v-285h168z" />
    <glyph glyph-name="C" unicode="C" horiz-adv-x="590" 
d="M522 557q-38 39 -84.5 61t-97.5 22q-53 0 -100 -23t-82.5 -63t-56 -94t-20.5 -115q0 -60 19.5 -114.5t54 -95t82 -64.5t103.5 -24q51 0 96.5 22t83.5 60l38 -37q-45 -47 -100.5 -74t-117.5 -27t-119 28t-100.5 76t-69.5 112.5t-26 137.5q0 70 24.5 133.5t67.5 111.5
t100 76.5t123 28.5q63 0 120 -27t100 -74z" />
    <glyph glyph-name="D" unicode="D" horiz-adv-x="575" 
d="M88 636v-581q51 0 102 1t102 1q39 1 72.5 24.5t59 62.5t40 91.5t14.5 111.5t-14.5 111.5t-40 91.5t-60 62t-73.5 24h-202zM33 691h257q51 -1 95 -28t77 -73.5t52 -109t19 -133.5t-18.5 -133.5t-51 -109t-76.5 -74.5t-95 -30h-259v691z" />
    <glyph glyph-name="E" unicode="E" horiz-adv-x="485" 
d="M393 340h-298v-285h349v-55h-404v691h404v-53h-349v-243h298v-55z" />
    <glyph glyph-name="F" unicode="F" horiz-adv-x="487" 
d="M397 340h-298v-340h-55v691h404v-52h-349v-244h298v-55z" />
    <glyph glyph-name="G" unicode="G" horiz-adv-x="604" 
d="M554 85q-43 -45 -98 -69.5t-118 -24.5q-65 0 -122.5 27.5t-100.5 75.5t-68 112t-25 136q0 73 25 137t68 112t100.5 76t122.5 28q63 0 119.5 -26.5t101.5 -74.5l-38 -38q-38 39 -85 61t-98 22q-54 0 -101.5 -23t-83.5 -63t-56.5 -94.5t-20.5 -116.5t20.5 -116t56.5 -94.5
t83.5 -64t101.5 -23.5q47 0 89 18t74 48v184h-187v53h242v-254z" />
    <glyph glyph-name="H" unicode="H" horiz-adv-x="558" 
d="M100 340v-340h-55v691h55v-296h360v296h54v-691h-54v340h-360z" />
    <glyph glyph-name="I" unicode="I" horiz-adv-x="138" 
d="M98 0h-55v691h55v-691z" />
    <glyph glyph-name="J" unicode="J" horiz-adv-x="305" 
d="M248 172q0 -37 -10.5 -70t-29 -57.5t-42.5 -39t-51 -14.5q-25 0 -47.5 13.5t-41.5 34.5l36 38q12 -14 25.5 -22.5t27.5 -8.5q32 0 54.5 35t22.5 89v521h56v-519z" />
    <glyph glyph-name="K" unicode="K" horiz-adv-x="583" 
d="M95 691v-357l306 357h73l-258 -301q81 -95 166.5 -195t166.5 -195h-71l-298 348q-22 -25 -42.5 -49t-42.5 -49v-250h-55v691h55z" />
    <glyph glyph-name="L" unicode="L" horiz-adv-x="453" 
d="M94 55h331v-55h-385v691h54v-636z" />
    <glyph glyph-name="M" unicode="M" horiz-adv-x="623" 
d="M519 691h53v-691h-56v578q-49 -83 -99 -168.5t-98 -169.5h-34l-200 338v-578h-55v691h52l221 -371z" />
    <glyph glyph-name="N" unicode="N" horiz-adv-x="537" 
d="M94 691l340 -576v576h55v-691h-52l-340 579v-579h-54v691h51z" />
    <glyph glyph-name="O" unicode="O" 
d="M519 561q-34 38 -80 58t-98 20q-54 0 -101 -23t-82.5 -62.5t-55.5 -93.5t-20 -115q0 -62 20 -116.5t55 -95t82.5 -63.5t101.5 -23q56 0 103.5 23t82.5 63.5t55 95t20 116.5q0 65 -22 120.5t-61 95.5zM559 88q-43 -47 -98.5 -72t-119.5 -25q-63 0 -120.5 27t-100.5 74.5
t-68.5 112.5t-25.5 140q0 73 24.5 136.5t67.5 111t100.5 75t122.5 27.5q67 0 124.5 -27.5t99.5 -74.5t66 -111t24 -137q0 -78 -25 -143.5t-71 -113.5z" />
    <glyph glyph-name="P" unicode="P" horiz-adv-x="480" 
d="M103 339v-339h-54v691h201q41 0 77 -13.5t63 -37t42.5 -55t15.5 -67.5q0 -38 -15.5 -70.5t-42.5 -56.5t-63 -38t-77 -14h-147zM103 638v-244h147q29 0 55 9.5t45.5 26t31 39t11.5 49.5q0 24 -11.5 46t-31 38.5t-46 26t-56.5 9.5h-145z" />
    <glyph glyph-name="Q" unicode="Q" horiz-adv-x="665" 
d="M487 571q-32 35 -73 55t-89 20q-49 0 -92.5 -22t-76.5 -59.5t-52 -88t-19 -108.5q0 -56 17.5 -105t48.5 -86.5t73 -60t90 -25.5q-5 12 -16 20.5t-28 7.5v49q38 1 64.5 -20t33.5 -53q41 10 77 35t62.5 61t42 81t15.5 96q0 60 -20.5 112.5t-57.5 90.5zM525 132
q-31 -34 -70.5 -56t-84.5 -30q5 -26 14.5 -43t22.5 -17q9 0 16.5 8t12.5 19l39 -34q-16 -20 -32 -32.5t-36 -12.5q-16 0 -30 8.5t-26 23.5t-20 34.5t-12 41.5q-57 3 -108.5 29.5t-91 70t-62.5 101.5t-23 125q0 70 23.5 129.5t63.5 103.5t92.5 69t111.5 25t112.5 -25
t93.5 -69.5t63.5 -104t23.5 -128.5q0 -70 -25.5 -131t-67.5 -105z" />
    <glyph glyph-name="S" unicode="S" horiz-adv-x="485" 
d="M83 126q24 -37 63 -58.5t89 -21.5q30 0 57.5 9.5t48 27t33 40.5t12.5 50q0 26 -11.5 49.5t-31 42.5t-46 31.5t-56.5 17.5q-43 5 -79.5 22t-63.5 43t-42.5 59t-15.5 69q0 40 17 74.5t46 59.5t68 39t84 14q59 0 105 -21.5t81 -60.5l-45 -36q-25 31 -61 48.5t-80 17.5
q-31 0 -59.5 -10t-50.5 -28t-35 -42t-13 -51t11.5 -51.5t31.5 -44t47.5 -32t59.5 -15.5q42 -6 78 -23t62 -43t41 -58t15 -68q0 -39 -16.5 -72.5t-45 -58.5t-67 -39.5t-81.5 -14.5q-63 0 -113.5 27.5t-80.5 72.5z" />
    <glyph glyph-name="T" unicode="T" horiz-adv-x="575" 
d="M315 638v-638h-55v638h-222v53h497v-53h-220z" />
    <glyph glyph-name="U" unicode="U" horiz-adv-x="598" 
d="M97 176q3 -26 20.5 -49t44.5 -41t62 -28.5t75 -10.5q38 0 72 10.5t61 28.5t44 41t20 49v515h55v-515q-2 -38 -22.5 -71.5t-55 -59t-79.5 -40t-95 -14.5q-53 0 -99 14.5t-81 40t-56 59t-24 71.5v515h58v-515z" />
    <glyph glyph-name="V" unicode="V" horiz-adv-x="639" 
d="M37 691h57l224 -603q55 150 112 302t111 301h58l-255 -691h-53z" />
    <glyph glyph-name="W" unicode="W" horiz-adv-x="915" 
d="M607 0h-55l-102 274q-25 -68 -50 -137t-50 -137h-54l-255 691h58l224 -604q24 67 49 135t49 135q-30 82 -61 167t-61 167h57l101 -274q32 -86 61.5 -164t61.5 -165q55 150 111.5 302t110.5 301h59z" />
    <glyph glyph-name="X" unicode="X" horiz-adv-x="541" 
d="M38 691h62l172 -288q42 72 85.5 144t85.5 144h63l-201 -344q49 -85 100.5 -173.5t100.5 -173.5h-63l-177 298q-43 -75 -87 -149t-88 -149h-62l206 353z" />
    <glyph glyph-name="Y" unicode="Y" horiz-adv-x="681" 
d="M649 691l-284 -380v-311h-56v311q-33 45 -69.5 93t-73 97t-72.5 97t-69 93h73l238 -326q60 81 120.5 163t120.5 163h72z" />
    <glyph glyph-name="Z" unicode="Z" horiz-adv-x="548" 
d="M124 55h355v-55h-455l397 636h-362v55h460z" />
    <glyph glyph-name="braceleft" unicode="{" horiz-adv-x="223" 
d="M154 53q0 1 17 1v-54q-11 0 -23.5 4t-23.5 10.5t-18 16.5t-7 22v235q0 16 -10.5 26.5t-25.5 10.5h-27v54h27q15 0 25.5 11t10.5 26v225q4 20 25 32.5t47 12.5v-56q-16 0 -17 3v-230q-5 -14 -15 -24.5t-27 -12.5v-27q32 -5 42 -36v-250v0z" />
    <glyph glyph-name="braceright" unicode="}" horiz-adv-x="188" 
d="M42 302q8 35 39 37q0 7 0.5 13t1.5 14q-15 3 -26.5 13.5t-14.5 23.5v227h-19v56q30 0 49 -13t23 -32l2 -6v-219q0 -15 9 -26t24 -11h27v-54h-27q-15 0 -24 -10.5t-9 -26.5v-235q0 -12 -7 -21.5t-17.5 -16.5t-24 -11t-25.5 -4v54q8 0 12.5 0.5t6.5 1.5v246z" />
    <glyph glyph-name="Euro" unicode="&#x20ac;" horiz-adv-x="745" 
d="M707 106q-48 -51 -111 -83t-136 -32q-58 0 -110 19.5t-93.5 55t-71 83.5t-42.5 105h-105v55h97q0 2 -0.5 5.5t-0.5 5.5q-1 5 -1 10.5v8.5q0 13 1 25t2 22v2h-98v55h109q16 54 46 99.5t71.5 78.5t91 51t104.5 18q73 0 136 -32t111 -83l-39 -40q-42 46 -93.5 72.5
t-114.5 26.5q-44 0 -83.5 -14t-73 -39.5t-59 -60.5t-39.5 -77h330v-55h-343q-4 -20 -4 -49v-8t1 -9q0 -5 0.5 -6.5t0.5 -6.5h345v-55h-333q13 -44 38 -82t59.5 -65.5t75.5 -43.5t85 -16q63 0 114.5 27.5t93.5 75.5z" />
    <glyph glyph-name="quotesinglbase" unicode="&#x201a;" horiz-adv-x="172" 
d="M70 76h60v-72l-88 -75l-11 17l39 63v67z" />
    <glyph glyph-name="comma" unicode="," horiz-adv-x="173" 
d="M70 76h60v-72l-88 -75l-11 17l39 63v67z" />
    <glyph glyph-name="period" unicode="." horiz-adv-x="145" 
d="M36 76h76v-76h-76v76z" />
    <glyph glyph-name="zero" unicode="0" horiz-adv-x="586" 
d="M94 341q0 -62 16 -115.5t43 -93.5t63 -63t77 -23q42 0 78 23t62.5 63t42 93.5t15.5 115.5q0 61 -15.5 114.5t-42 93.5t-62.5 63t-78 23q-41 0 -77 -23t-63 -63t-43 -93.5t-16 -114.5zM39 341q0 72 20 136t54.5 111t81 74.5t98.5 27.5t98 -27.5t80.5 -74.5t54 -111
t19.5 -136t-19.5 -135.5t-54 -111.5t-80.5 -75.5t-98 -27.5t-98.5 27.5t-81 75.5t-54.5 111.5t-20 135.5z" />
    <glyph glyph-name="one" unicode="1" horiz-adv-x="263" 
d="M28 578l130 108h50v-686h-55v613q-21 -18 -44 -36.5t-43 -35.5z" />
    <glyph glyph-name="two" unicode="2" horiz-adv-x="475" 
d="M129 54h303v-54h-380v50l285 319q19 21 30 48t11 58q0 34 -13 63t-35 50.5t-52.5 34t-64.5 12.5q-32 0 -62.5 -13.5t-55.5 -36.5l-39 39q33 29 73 47.5t84 18.5q45 0 85 -17t70 -46.5t47 -68.5t17 -83q0 -43 -16 -80t-43 -65z" />
    <glyph glyph-name="three" unicode="3" horiz-adv-x="431" 
d="M57 103q24 -26 58 -43t72 -17q32 0 60.5 11t50 30.5t34 45.5t12.5 55q0 25 -12.5 47.5t-32.5 41t-46 31.5t-54 18h-96v54h97q31 2 57.5 13t46 28.5t31 40t11.5 47.5q0 27 -12.5 51t-33.5 41.5t-49.5 27.5t-60.5 10q-38 0 -73 -14.5t-60 -42.5l-38 40q32 34 76.5 52.5
t94.5 18.5q44 0 83 -14.5t68 -39.5t46 -58.5t17 -71.5q0 -51 -30 -92.5t-77 -64.5q46 -26 74 -68.5t28 -95.5q0 -41 -16.5 -76.5t-45.5 -62t-67.5 -42t-82.5 -15.5q-51 0 -94.5 21t-73.5 55z" />
    <glyph glyph-name="four" unicode="4" horiz-adv-x="473" 
d="M33 247l2 50l226 391l47 -26l-208 -360h180v149h55v-149h96v-55h-96v-247h-55v247h-247z" />
    <glyph glyph-name="five" unicode="5" horiz-adv-x="504" 
d="M45 342l24 344h372v-55h-319q-5 -50 -9 -94.5t-10 -95.5q55 54 142 54q46 0 87 -19.5t71 -52.5t47.5 -78t17.5 -96t-17.5 -96.5t-47.5 -79.5t-71 -53.5t-87 -19.5q-54 0 -101.5 28t-78.5 75l39 39q24 -40 60.5 -64t80.5 -24q35 0 65.5 15.5t53.5 41.5t36 61.5t13 76.5
q0 40 -13 75.5t-36 61.5t-53.5 41t-65.5 15q-48 0 -88 -27.5t-60 -72.5h-52z" />
    <glyph glyph-name="six" unicode="6" horiz-adv-x="506" 
d="M471 199q0 -44 -16.5 -82t-45 -65.5t-66.5 -43.5t-82 -16q-42 0 -78.5 15.5t-64.5 43t-45 64.5t-19 81v-1q-3 32 -3.5 67t-0.5 68v21q0 44 2.5 83.5t10.5 76.5q7 37 25.5 69.5t46 56.5t62 38.5t73.5 15.5q54 0 101.5 -24t82.5 -70l-53 -32q-23 32 -57.5 51.5t-72.5 19.5
q-29 0 -55.5 -10.5t-47.5 -29t-35.5 -44.5t-19.5 -56q-7 -36 -10 -75.5t-3 -81.5v-8q26 35 66.5 56t89.5 23q43 0 81.5 -15t68 -42t47.5 -64t18 -81v-9zM418 206q-1 32 -13.5 59.5t-33.5 47.5t-49.5 31.5t-60.5 11.5q-33 0 -61 -13t-48.5 -35t-32 -51t-11.5 -61
q0 -31 12.5 -58.5t34 -48t49.5 -32.5t59 -12q32 0 60 12t49 33t33.5 48.5t12.5 58.5v9z" />
    <glyph glyph-name="seven" unicode="7" horiz-adv-x="443" 
d="M330 631h-268v55h357l-320 -686h-63z" />
    <glyph glyph-name="eight" unicode="8" horiz-adv-x="459" 
d="M28 193q0 57 29.5 104t73.5 73q-38 23 -59.5 60t-21.5 85q0 36 14 68t38.5 55.5t57 37.5t69.5 14q38 0 71.5 -14t58 -37.5t38.5 -55.5t14 -68q0 -48 -21 -85t-60 -60q47 -26 74.5 -73t27.5 -104q0 -42 -15.5 -78.5t-43 -64t-64.5 -43.5t-80 -16q-41 0 -77.5 16t-64 43.5
t-43.5 64t-16 78.5zM104 515q0 -25 10 -46.5t27 -38t39.5 -26t48.5 -9.5t49 9.5t40 26t27 38t10 46.5t-10 47t-27 38t-40 25.5t-49 9.5t-48.5 -9.5t-39.5 -25.5t-27 -38t-10 -47zM83 193q0 -30 11.5 -56.5t31.5 -46.5t46.5 -32t56.5 -12q31 0 58 12t47.5 32t32 46.5
t11.5 56.5t-11.5 57t-32 47.5t-47.5 32t-58 11.5q-30 0 -56.5 -11.5t-46.5 -32t-31.5 -47.5t-11.5 -57z" />
    <glyph glyph-name="nine" unicode="9" horiz-adv-x="489" 
d="M35 482q0 43 16.5 81t44.5 66.5t66 45t82 16.5q42 0 79 -16.5t65.5 -45t46 -65.5t20.5 -79q2 -32 2.5 -68.5t0.5 -68.5v-26q0 -40 -2.5 -77.5t-9.5 -72.5q-8 -40 -28 -73t-49.5 -56.5t-66 -36.5t-76.5 -13q-50 0 -95 24.5t-77 63.5l50 41q24 -35 58 -54t71 -19
q63 0 106.5 39t56.5 97q5 35 8 74t3 79v12q-29 -32 -72 -53.5t-93 -21.5q-41 0 -78.5 15.5t-65.5 42.5t-45 63.5t-18 78.5v7zM87 477q2 -31 15 -58t34 -47t48 -31.5t58 -11.5q33 0 62 12t50 33t33.5 49t12.5 61q0 31 -13 58.5t-34.5 48t-49.5 32.5t-58 12q-33 0 -62 -13
t-50.5 -34.5t-33.5 -50.5t-12 -60z" />
    <glyph glyph-name="questiondown" unicode="&#xbf;" horiz-adv-x="432" 
d="M234 686l93 -319v-51h-103q-26 -1 -49.5 -11.5t-41 -29t-27.5 -42.5t-10 -52q0 -27 10.5 -51.5t28.5 -43t42.5 -29.5t51.5 -11q36 0 66.5 20.5t51.5 53.5l39 -40q-26 -40 -66.5 -65t-90.5 -25q-38 0 -72 15t-59.5 41.5t-40 61t-14.5 73.5q0 38 14.5 72.5t39 61t57.5 42
t70 15.5h45q-22 75 -46.5 158t-45.5 156h57zM216 771q0 -14 -9.5 -24t-22.5 -10q-16 0 -25 10t-9 24q0 16 9 25.5t25 9.5q13 0 22.5 -9.5t9.5 -25.5z" />
    <glyph glyph-name="ae" unicode="&#xe6;" horiz-adv-x="743" 
d="M312 30q-22 -18 -50.5 -29t-59.5 -11q-34 0 -63.5 12t-52 33t-35.5 49t-13 60t13 60.5t35.5 49.5t52 33t63.5 12h105q1 6 2.5 13.5l2.5 12.5q-1 54 -29 89t-68 37q-30 0 -59.5 -4t-57.5 -12l-14 52q32 9 64.5 14t67.5 5q43 -2 77.5 -27.5t54.5 -68.5q28 45 68.5 71
t87.5 26q42 0 78.5 -19.5t63 -53.5t42 -80t15.5 -100v-30h-338v-36q7 -30 22 -56t34.5 -45.5t43.5 -30.5t50 -11q31 0 67 12.5t62 25.5l22 -48q-29 -16 -60.5 -26.5t-64.5 -16.5q-6 -1 -12.5 -1h-13.5q-45 0 -82.5 19t-66.5 54q1 -23 4.5 -39.5t14.5 -24.5h-73v30zM649 277
q-3 37 -15.5 69t-32 55.5t-44.5 36.5t-53 13q-27 0 -52 -13t-43.5 -36t-30 -55t-12.5 -70h283zM304 245h-102q-23 0 -42.5 -8t-34 -22t-23 -32t-8.5 -39t8.5 -38.5t23 -31t34 -21t42.5 -7.5q22 0 42 7.5t35 21t24 31t9 38.5v28q-7 28 -8 59v14z" />
    <glyph glyph-name="a" unicode="a" horiz-adv-x="406" 
d="M310 30q-22 -18 -50.5 -29t-60.5 -11q-33 0 -63 12t-52 33t-35 49t-13 60q0 34 13.5 62.5t37 49t54 32t65.5 11.5h104v14q0 57 -26.5 96.5t-70.5 41.5q-30 0 -59.5 -4t-58.5 -12l-13 52q31 9 64 14t68 5q30 -1 56.5 -14.5t47 -37t33 -54.5t14.5 -67v-10q-1 -25 -1 -52
q-1 -23 -1 -52.5v-59.5q0 -27 1 -54t3 -48.5t5 -37t7 -19.5h-69v30zM310 245h-104q-24 0 -44.5 -7.5t-36.5 -20.5t-25 -32t-9 -41q0 -21 8.5 -38.5t23 -31t34 -21t42.5 -7.5t43 7.5t35 21t24 31t9 38.5v101z" />
    <glyph glyph-name="b" unicode="b" horiz-adv-x="523" 
d="M109 98q0 -11 11 -20t30 -16t44.5 -11.5t54.5 -5.5q38 1 71.5 17t59 44t40.5 64.5t15 78.5q0 40 -15 77t-40.5 64.5t-59 44t-71.5 16.5q-53 0 -93 -14t-47 -33v-306zM109 0h-68q5 6 7.5 22t4.5 33q2 19 4 43v588h55v-211q54 31 137 31q50 0 93.5 -20.5t76 -56t51.5 -82
t19 -98.5q0 -53 -19 -99.5t-51.5 -81.5t-76 -56t-93.5 -22q-44 2 -79 10t-61 23v-23z" />
    <glyph glyph-name="c" unicode="c" horiz-adv-x="478" 
d="M397 383q-26 31 -62 49.5t-76 18.5q-38 0 -72 -16t-59 -43.5t-39.5 -64.5t-14.5 -79t14.5 -78.5t39.5 -64t59 -43.5t72 -16t73 17t62 48l40 -38q-36 -38 -80 -60t-95 -22q-49 0 -92.5 20.5t-76 55.5t-51.5 81.5t-19 99.5t19 100t51.5 82t76 55.5t92.5 20.5q52 0 97.5 -23
t79.5 -60z" />
    <glyph glyph-name="oe" unicode="&#x153;" horiz-adv-x="880" 
d="M653 45q31 0 67 12.5t62 25.5l22 -48q-29 -16 -60.5 -26.5t-64.5 -16.5q-6 -1 -12.5 -1h-13.5q-62 0 -112 38.5t-76 100.5q-15 -30 -36.5 -56t-48.5 -44.5t-58 -29t-65 -10.5q-48 0 -91 20.5t-75 55.5t-50.5 81.5t-18.5 99.5q0 54 18.5 101t50.5 82t75 55.5t91 20.5
q33 0 64 -10.5t58 -29t48.5 -44t36.5 -55.5q13 30 31.5 55.5t41.5 44.5t49.5 29.5t55.5 10.5q42 0 78.5 -19.5t63 -53.5t42 -80t15.5 -100v-30h-344q3 -38 16 -70.5t33.5 -56.5t48 -38t58.5 -14zM76 247q0 -42 14 -78.5t39 -64t57.5 -43.5t70.5 -16q36 0 68.5 16t56.5 43.5
t38 64t14 78.5t-14 79.5t-38 65t-56.5 43.5t-68.5 16q-38 0 -70.5 -16t-57.5 -43.5t-39 -65t-14 -79.5zM787 277q-3 37 -15.5 69t-32 55.5t-44.5 36.5t-53 13q-27 0 -51 -13.5t-43 -37t-32 -55.5t-18 -68h289z" />
    <glyph glyph-name="OE" unicode="&#x152;" horiz-adv-x="1056" 
d="M561 88q-43 -47 -98.5 -72t-120.5 -25q-63 0 -120 27t-100 74.5t-68.5 112.5t-25.5 140q0 73 24.5 136.5t67.5 111t100 75t122 27.5q85 0 151.5 -38.5t109.5 -111.5v146h405v-53h-350v-243h299v-55h-299v-285h350v-55h-405v143q-10 -15 -20 -28.5t-22 -26.5zM521 561
q-34 38 -80 58t-99 20q-54 0 -101 -23t-82 -62.5t-55 -93.5t-20 -115q0 -62 20 -116.5t54.5 -95t82 -63.5t101.5 -23q52 0 97.5 21.5t80 58.5t56.5 86.5t27 105.5v51q-5 58 -26 106.5t-56 84.5z" />
    <glyph glyph-name="question" unicode="?" horiz-adv-x="410" 
d="M180 0l-90 317v49h99q27 1 50.5 11.5t40.5 28.5t27 42t10 51q0 28 -10.5 53t-28 44t-41.5 29.5t-51 10.5q-36 0 -66 -21t-50 -54l-39 39q26 41 66.5 65.5t88.5 24.5q38 0 71.5 -15t58.5 -41t39.5 -61t14.5 -74q0 -38 -14 -71.5t-38.5 -59.5t-57.5 -41t-71 -15h-43
q22 -74 46.5 -156.5t45.5 -155.5h-58zM197 -87q0 15 10 24t23 9q15 0 23.5 -9t8.5 -24q0 -14 -8.5 -24.5t-23.5 -10.5q-13 0 -23 10.5t-10 24.5z" />
    <glyph glyph-name="acute" unicode="&#xb4;" horiz-adv-x="209" 
d="M69 538h-38l74 98h86z" />
    <glyph glyph-name="grave" unicode="`" horiz-adv-x="204" 
d="M14 636h87l73 -98h-37z" />
    <glyph glyph-name="agrave" unicode="&#xe0;" horiz-adv-x="406" 
d="M310 30q-22 -18 -50.5 -29t-60.5 -11q-33 0 -63 12t-52 33t-35 49t-13 60q0 34 13.5 62.5t37 49t54 32t65.5 11.5h104v14q0 57 -26.5 96.5t-70.5 41.5q-30 0 -59.5 -4t-58.5 -12l-13 52q31 9 64 14t68 5q30 -1 56.5 -14.5t47 -37t33 -54.5t14.5 -67v-10q-1 -25 -1 -52
q-1 -23 -1 -52.5v-59.5q0 -27 1 -54t3 -48.5t5 -37t7 -19.5h-69v30zM310 245h-104q-24 0 -44.5 -7.5t-36.5 -20.5t-25 -32t-9 -41q0 -21 8.5 -38.5t23 -31t34 -21t42.5 -7.5t43 7.5t35 21t24 31t9 38.5v101zM74 636h87l73 -98h-37z" />
    <glyph glyph-name="aacute" unicode="&#xe1;" horiz-adv-x="406" 
d="M310 30q-22 -18 -50.5 -29t-60.5 -11q-33 0 -63 12t-52 33t-35 49t-13 60q0 34 13.5 62.5t37 49t54 32t65.5 11.5h104v14q0 57 -26.5 96.5t-70.5 41.5q-30 0 -59.5 -4t-58.5 -12l-13 52q31 9 64 14t68 5q30 -1 56.5 -14.5t47 -37t33 -54.5t14.5 -67v-10q-1 -25 -1 -52
q-1 -23 -1 -52.5v-59.5q0 -27 1 -54t3 -48.5t5 -37t7 -19.5h-69v30zM310 245h-104q-24 0 -44.5 -7.5t-36.5 -20.5t-25 -32t-9 -41q0 -21 8.5 -38.5t23 -31t34 -21t42.5 -7.5t43 7.5t35 21t24 31t9 38.5v101zM204 538h-38l74 98h86z" />
    <glyph glyph-name="Agrave" unicode="&#xc0;" horiz-adv-x="596" 
d="M396 336q-25 67 -47.5 126.5t-47.5 127.5q-24 -66 -47 -127t-47 -127h189zM279 691h45l254 -691h-57l-105 281h-229q-25 -69 -52 -140.5t-53 -140.5h-57zM174 827h87l73 -98h-37z" />
    <glyph glyph-name="Aacute" unicode="&#xc1;" horiz-adv-x="596" 
d="M396 336q-25 67 -47.5 126.5t-47.5 127.5q-24 -66 -47 -127t-47 -127h189zM279 691h45l254 -691h-57l-105 281h-229q-25 -69 -52 -140.5t-53 -140.5h-57zM316 729h-38l74 98h86z" />
    <glyph glyph-name="Acircumflex" unicode="&#xc2;" horiz-adv-x="596" 
d="M396 336q-25 67 -47.5 126.5t-47.5 127.5q-24 -66 -47 -127t-47 -127h189zM279 691h45l254 -691h-57l-105 281h-229q-25 -69 -52 -140.5t-53 -140.5h-57z" />
    <glyph glyph-name="Egrave" unicode="&#xc8;" horiz-adv-x="485" 
d="M393 340h-298v-285h349v-55h-404v691h404v-53h-349v-243h298v-55zM105 827h87l73 -98h-37z" />
    <glyph glyph-name="Eacute" unicode="&#xc9;" horiz-adv-x="485" 
d="M393 340h-298v-285h349v-55h-404v691h404v-53h-349v-243h298v-55zM233 729h-38l74 98h86z" />
    <glyph glyph-name="Ograve" unicode="&#xd2;" 
d="M519 561q-34 38 -80 58t-98 20q-54 0 -101 -23t-82.5 -62.5t-55.5 -93.5t-20 -115q0 -62 20 -116.5t55 -95t82.5 -63.5t101.5 -23q56 0 103.5 23t82.5 63.5t55 95t20 116.5q0 65 -22 120.5t-61 95.5zM559 88q-43 -47 -98.5 -72t-119.5 -25q-63 0 -120.5 27t-100.5 74.5
t-68.5 112.5t-25.5 140q0 73 24.5 136.5t67.5 111t100.5 75t122.5 27.5q67 0 124.5 -27.5t99.5 -74.5t66 -111t24 -137q0 -78 -25 -143.5t-71 -113.5zM196 827h87l73 -98h-37z" />
    <glyph glyph-name="Oacute" unicode="&#xd3;" 
d="M519 561q-34 38 -80 58t-98 20q-54 0 -101 -23t-82.5 -62.5t-55.5 -93.5t-20 -115q0 -62 20 -116.5t55 -95t82.5 -63.5t101.5 -23q56 0 103.5 23t82.5 63.5t55 95t20 116.5q0 65 -22 120.5t-61 95.5zM559 88q-43 -47 -98.5 -72t-119.5 -25q-63 0 -120.5 27t-100.5 74.5
t-68.5 112.5t-25.5 140q0 73 24.5 136.5t67.5 111t100.5 75t122.5 27.5q67 0 124.5 -27.5t99.5 -74.5t66 -111t24 -137q0 -78 -25 -143.5t-71 -113.5zM371 729h-38l74 98h86z" />
    <glyph glyph-name="Ugrave" unicode="&#xd9;" horiz-adv-x="598" 
d="M97 176q3 -26 20.5 -49t44.5 -41t62 -28.5t75 -10.5q38 0 72 10.5t61 28.5t44 41t20 49v515h55v-515q-2 -38 -22.5 -71.5t-55 -59t-79.5 -40t-95 -14.5q-53 0 -99 14.5t-81 40t-56 59t-24 71.5v515h58v-515zM168 827h87l73 -98h-37z" />
    <glyph glyph-name="Uacute" unicode="&#xda;" horiz-adv-x="598" 
d="M97 176q3 -26 20.5 -49t44.5 -41t62 -28.5t75 -10.5q38 0 72 10.5t61 28.5t44 41t20 49v515h55v-515q-2 -38 -22.5 -71.5t-55 -59t-79.5 -40t-95 -14.5q-53 0 -99 14.5t-81 40t-56 59t-24 71.5v515h58v-515zM312 729h-38l74 98h86z" />
    <glyph glyph-name="Yacute" unicode="&#xdd;" horiz-adv-x="681" 
d="M649 691l-284 -380v-311h-56v311q-33 45 -69.5 93t-73 97t-72.5 97t-69 93h73l238 -326q60 81 120.5 163t120.5 163h72zM362 729h-38l74 98h86z" />
    <glyph glyph-name="egrave" unicode="&#xe8;" horiz-adv-x="456" 
d="M237 45q15 0 32 3.5t34.5 9t33.5 12.5t29 13l21 -48q-29 -16 -60 -26.5t-64 -16.5q-6 -1 -13 -1h-13q-42 0 -79 18.5t-65.5 51t-46.5 76.5t-21 94v18q0 53 16 100t43.5 82t64 55.5t77.5 20.5q42 0 78 -19.5t63 -53.5t42 -80t15 -100v-30h-343q3 -38 16 -70.5t33.5 -56.5
t48 -38t58.5 -14zM371 277q-3 37 -15.5 69t-32 55.5t-44.5 36.5t-53 13q-27 0 -51 -13.5t-43 -37t-32 -55.5t-18 -68h289zM103 636h87l73 -98h-37z" />
    <glyph glyph-name="eacute" unicode="&#xe9;" horiz-adv-x="456" 
d="M237 45q15 0 32 3.5t34.5 9t33.5 12.5t29 13l21 -48q-29 -16 -60 -26.5t-64 -16.5q-6 -1 -13 -1h-13q-42 0 -79 18.5t-65.5 51t-46.5 76.5t-21 94v18q0 53 16 100t43.5 82t64 55.5t77.5 20.5q42 0 78 -19.5t63 -53.5t42 -80t15 -100v-30h-343q3 -38 16 -70.5t33.5 -56.5
t48 -38t58.5 -14zM371 277q-3 37 -15.5 69t-32 55.5t-44.5 36.5t-53 13q-27 0 -51 -13.5t-43 -37t-32 -55.5t-18 -68h289zM233 538h-38l74 98h86z" />
    <glyph glyph-name="igrave" unicode="&#xec;" horiz-adv-x="211" 
d="M88 500h53v-500h-53v500zM-1 643h87l73 -98h-37z" />
    <glyph glyph-name="iacute" unicode="&#xed;" horiz-adv-x="211" 
d="M59 500h54v-500h-54v500zM78 545h-38l74 98h86z" />
    <glyph glyph-name="ograve" unicode="&#xf2;" horiz-adv-x="527" 
d="M74 247q0 -42 14 -78.5t38.5 -64t57 -43.5t70.5 -16q37 0 69.5 16t56.5 43.5t38 64t14 78.5t-14 79.5t-38 65t-56.5 43.5t-69.5 16q-38 0 -70.5 -16t-57 -43.5t-38.5 -65t-14 -79.5zM19 247q0 54 18.5 101t50.5 82t75 55.5t91 20.5t90.5 -20.5t74 -55.5t50 -82t18.5 -101
q0 -53 -18.5 -99.5t-50 -81.5t-74 -55.5t-90.5 -20.5t-91 20.5t-75 55.5t-50.5 81.5t-18.5 99.5zM139 636h87l73 -98h-37z" />
    <glyph glyph-name="oacute" unicode="&#xf3;" horiz-adv-x="527" 
d="M74 247q0 -42 14 -78.5t38.5 -64t57 -43.5t70.5 -16q37 0 69.5 16t56.5 43.5t38 64t14 78.5t-14 79.5t-38 65t-56.5 43.5t-69.5 16q-38 0 -70.5 -16t-57 -43.5t-38.5 -65t-14 -79.5zM19 247q0 54 18.5 101t50.5 82t75 55.5t91 20.5t90.5 -20.5t74 -55.5t50 -82t18.5 -101
q0 -53 -18.5 -99.5t-50 -81.5t-74 -55.5t-90.5 -20.5t-91 20.5t-75 55.5t-50.5 81.5t-18.5 99.5zM275 538h-38l74 98h86z" />
    <glyph glyph-name="ugrave" unicode="&#xf9;" horiz-adv-x="450" 
d="M343 53q-24 -28 -57 -45t-71 -17q-35 0 -65.5 14.5t-53 39.5t-36 58.5t-14.5 71.5q-1 2 -3 4v319h54v-316l1 -5q1 -26 11.5 -49.5t27 -41.5t38.5 -28.5t47 -10.5q22 0 42.5 9.5t36.5 25.5t27 37t15 44v337h54v-446q0 -17 5 -33t10 -21h-69v53zM102 636h87l73 -98h-37z
" />
    <glyph glyph-name="uacute" unicode="&#xfa;" horiz-adv-x="450" 
d="M343 53q-24 -28 -57 -45t-71 -17q-35 0 -65.5 14.5t-53 39.5t-36 58.5t-14.5 71.5q-1 2 -3 4v319h54v-316l1 -5q1 -26 11.5 -49.5t27 -41.5t38.5 -28.5t47 -10.5q22 0 42.5 9.5t36.5 25.5t27 37t15 44v337h54v-446q0 -17 5 -33t10 -21h-69v53zM222 538h-38l74 98h86z" />
    <glyph glyph-name="yacute" unicode="&#xfd;" horiz-adv-x="535" 
d="M56 -133q6 -6 16.5 -7t20.5 -1q32 0 63 22t47 64q10 24 19 47t19 47q-47 115 -94.5 233.5t-95.5 233.5h58l159 -398q39 98 79 198.5t79 199.5h58l-190 -468l1 1q-11 -29 -22 -57t-21 -57q-11 -29 -28.5 -51t-39 -37.5t-45.5 -23.5t-48 -8q-22 0 -43 6zM285 538h-38l74 98
h86z" />
    <glyph glyph-name="colon" unicode=":" horiz-adv-x="182" 
d="M54 76h76v-76h-76v76zM54 500h76v-76h-76v76z" />
    <glyph glyph-name="semicolon" unicode=";" horiz-adv-x="169" 
d="M54 500h75v-76h-75v76zM59 76h61v-72l-89 -75l-11 17l39 63v67z" />
    <glyph glyph-name="equal" unicode="=" horiz-adv-x="440" 
d="M65 440h339v-57h-339v57zM65 251h339v-56h-339v56z" />
    <glyph glyph-name="Ccedilla" unicode="&#xc7;" horiz-adv-x="634" 
d="M546 557q-38 40 -84.5 62.5t-96.5 22.5q-55 0 -102.5 -24t-83 -65t-56 -95.5t-20.5 -115.5q0 -60 20.5 -114t55.5 -95t83 -65t103 -24q50 0 96 22.5t83 60.5l39 -37q-46 -49 -103 -73.5t-122 -25.5q-1 -2 -2 -5.5t-2 -5.5q7 -2 15.5 -7.5t16 -13.5t12.5 -17.5t5 -20.5
q0 -15 -12 -32t-44 -34l-53 39q5 0 15.5 1.5t21 4.5t18.5 8.5t8 14.5q0 7 -5 11.5t-11.5 7t-14 3.5t-12.5 1h-15l1 52q-53 13 -98.5 44t-79.5 76.5t-53.5 102.5t-19.5 121q0 75 25 139.5t68 112t100.5 74.5t122.5 27q63 0 119 -27t101 -75z" />
    <glyph glyph-name="ccedilla" unicode="&#xe7;" horiz-adv-x="493" 
d="M286 -23q7 -2 15.5 -7.5t16 -13.5t12.5 -18t5 -21q0 -14 -12.5 -31t-42.5 -36l-48 38q8 1 17.5 3t18 5.5t14.5 8t6 10.5q0 9 -4.5 14.5t-11 8.5t-14 4t-12.5 1q-2 0 -3 -0.5t-2 -0.5h-11l2 53q-42 8 -78 31t-63 56.5t-42 76t-15 90.5q0 53 19 99.5t51.5 81.5t76.5 55.5
t94 20.5q51 0 96.5 -22.5t80.5 -61.5l-38 -38q-29 31 -65 49t-74 18q-39 0 -72.5 -16t-59 -43t-40 -64t-14.5 -79t14.5 -79t40 -64.5t59 -43.5t72.5 -16q38 0 73 17t62 46l39 -38q-31 -33 -72 -54t-86 -26z" />
    <glyph glyph-name="cent" unicode="&#xa2;" horiz-adv-x="478" 
d="M231 570h59v-67q43 -5 80 -26.5t66 -53.5l-39 -40q-20 25 -47.5 42.5t-59.5 22.5v-400q30 5 56 21.5t49 41.5l39 -38q-32 -32 -67 -53.5t-77 -26.5v-66h-59v67q-44 6 -82.5 28t-67 56t-45 77.5t-16.5 92.5t16.5 93t45 78t67 56t82.5 28v67zM74 248q0 -38 12 -71.5
t33 -60.5t50 -44.5t62 -23.5v400q-33 -6 -62 -23.5t-50 -44t-33 -60.5t-12 -72z" />
    <glyph glyph-name="bar" unicode="|" horiz-adv-x="131" 
d="M50 711h39v-710h-39v710z" />
    <glyph glyph-name="glyph107" horiz-adv-x="478" 
d="M399 386q-26 31 -62 50t-77 19q-39 0 -72.5 -16t-59 -44t-40 -65t-14.5 -80q0 -42 14.5 -79t40 -65t59 -44t72.5 -16q38 0 73.5 17.5t62.5 48.5l40 -38q-36 -38 -80.5 -60.5t-95.5 -22.5q-49 0 -93 20.5t-77 55.5t-52 82.5t-19 100.5q0 54 19 101t52 82.5t77 56t93 20.5
q53 0 98.5 -23.5t79.5 -60.5zM232 574h59v-648h-59v648z" />
    <glyph glyph-name="dollar" unicode="$" horiz-adv-x="466" 
d="M203 632q-24 -6 -45 -18t-36.5 -28.5t-24.5 -37t-9 -42.5q0 -23 8.5 -44t23.5 -39t36 -31t47 -20v260zM257 49q25 4 46.5 14.5t37.5 26.5t25 37t9 45t-8.5 46t-24.5 40t-37.5 31t-47.5 19v-259zM257 731v-42q53 -2 96.5 -24t75.5 -58l-44 -35q-23 27 -56.5 45t-71.5 20
v-276q37 -8 69.5 -25.5t55.5 -42t36.5 -54.5t13.5 -64q0 -35 -13.5 -65.5t-37 -54.5t-55.5 -40t-69 -21v-58h-54v56h-5q-53 5 -97 32t-71 66l44 35q19 -29 53.5 -53t75.5 -26v269q-38 8 -70 25.5t-54.5 42t-35 55t-12.5 64.5q0 35 13 65.5t36 54.5t54.5 40.5t68.5 23.5v45
h54z" />
    <glyph glyph-name="quoteleft" unicode="&#x2018;" horiz-adv-x="150" 
d="M112 543l-54 -25l-30 66l48 103l18 -9l-9 -76z" />
    <glyph glyph-name="quoteright" unicode="&#x2019;" horiz-adv-x="159" 
d="M52 681l60 5l8 -70l-79 -84l-14 14l32 68z" />
    <glyph glyph-name="quotedblright" unicode="&#x201d;" horiz-adv-x="237" 
d="M52 681l60 5l8 -70l-79 -84l-13 14l32 68zM123 681l60 5l8 -70l-79 -84l-13 14l32 68z" />
    <glyph glyph-name="quotedblleft" unicode="&#x201c;" horiz-adv-x="218" 
d="M160 614q8 -17 16 -34.5t16 -33.5l-13 -14l-79 84l8 70l60 -5zM89 614q8 -17 16 -34.5t16 -33.5l-13 -14l-79 84l8 70l60 -5z" />
    <glyph glyph-name="quotedbl" unicode="&#x22;" horiz-adv-x="217" 
d="M31 686h59l8 -69l-42 -89l-15 15zM104 686h59l8 -69l-42 -89l-15 15z" />
    <glyph glyph-name="quotedblbase" unicode="&#x201e;" horiz-adv-x="231" 
d="M58 78h61v-71l-86 -76l-11 16l38 64zM132 77h59v-72l-87 -76l-10 17l38 64v67z" />
    <glyph glyph-name="ordfeminine" unicode="&#xaa;" horiz-adv-x="179" 
d="M116 311v1q-11 -5 -29 -5q-29 0 -48 19t-19 46q0 26 19.5 43.5t49.5 17.5h27q-1 13 -8 24t-16 11q-12 0 -23 -2t-27 -7l-7 39q14 4 27 6t30 2q24 0 41.5 -20.5t19.5 -53.5q-1 -8 -1 -17v-38q0 -17 6.5 -37.5t14.5 -28.5h-57zM87 396q-12 0 -20.5 -8t-8.5 -16
q0 -10 8.5 -18t20.5 -8q11 0 20 8t9 18v24h-29z" />
    <glyph glyph-name="ordmasculine" unicode="&#xba;" horiz-adv-x="232" 
d="M59 402q0 -23 17.5 -42t39.5 -19q20 0 36 19t16 42q0 26 -16 46t-36 20q-22 0 -39.5 -20t-17.5 -46zM21 402q0 45 27 74.5t68 29.5q19 0 35.5 -8t29 -21.5t19.5 -33t7 -41.5q0 -42 -26.5 -70.5t-64.5 -28.5q-41 0 -68 28.5t-27 70.5z" />
    <glyph glyph-name="twosuperior" unicode="&#xb2;" horiz-adv-x="280" 
d="M245 351v-43h-217v39l153 171q10 10 15.5 24.5t5.5 27.5q0 15 -6.5 29t-18 24.5t-25.5 16.5t-29 6q-31 0 -65 -33l-33 34q23 20 47 31.5t51 11.5q26 0 48 -9.5t38.5 -26t26 -38t9.5 -46.5q0 -23 -10 -46.5t-22 -38.5l-120 -134h152z" />
    <glyph glyph-name="threesuperior" unicode="&#xb3;" horiz-adv-x="265" 
d="M49 377q12 -13 29.5 -22t34.5 -9q27 0 50 19t23 46q0 13 -6 25t-15.5 21t-21.5 14.5t-25 7.5h-58v43h59q26 2 46.5 20.5t20.5 41.5t-22 41t-50 18q-17 0 -35.5 -9t-35.5 -27l-32 34q42 45 103 45q24 0 45.5 -8t37.5 -21.5t25.5 -32.5t9.5 -40q0 -59 -47 -85
q19 -16 31.5 -39t12.5 -49q0 -23 -9 -42.5t-25 -33.5t-37 -22.5t-45 -8.5q-32 0 -57.5 12.5t-45.5 34.5l26 26h13z" />
    <glyph glyph-name="dieresis" unicode="&#xa8;" horiz-adv-x="263" 
d="M33 639q0 14 10.5 23.5t24.5 9.5t24.5 -9.5t10.5 -23.5q0 -13 -10.5 -23t-24.5 -10t-24.5 10t-10.5 23zM163 639q0 14 10.5 23.5t24.5 9.5t24.5 -9.5t10.5 -23.5q0 -13 -10.5 -23t-24.5 -10t-24.5 10t-10.5 23z" />
    <glyph glyph-name="adieresis" unicode="&#xe4;" horiz-adv-x="406" 
d="M110 639q0 14 10 23.5t25 9.5q14 0 24.5 -9.5t10.5 -23.5q0 -13 -10.5 -23t-24.5 -10q-15 0 -25 10t-10 23zM240 639q0 14 10.5 23.5t24.5 9.5t24.5 -9.5t10.5 -23.5q0 -13 -10.5 -23t-24.5 -10t-24.5 10t-10.5 23zM313 37q-22 -18 -50.5 -29t-60.5 -11q-33 0 -63 12
t-52 33t-35 49t-13 60q0 34 13.5 62.5t37 49t54 32t65.5 11.5h104v14q0 57 -26.5 96.5t-70.5 41.5q-30 0 -59.5 -4t-58.5 -12l-13 52q31 9 64 14t68 5q30 -1 56.5 -14.5t47 -37t33 -54.5t14.5 -67v-10q-1 -25 -1 -52q-1 -23 -1 -52.5v-59.5q0 -27 1 -54t3 -48.5t5 -37
t7 -19.5h-69v30zM313 252h-104q-24 0 -44.5 -7.5t-36.5 -20.5t-25 -32t-9 -41q0 -21 8.5 -38.5t23 -31t34 -21t42.5 -7.5t43 7.5t35 21t24 31t9 38.5v101z" />
    <glyph glyph-name="edieresis" unicode="&#xeb;" horiz-adv-x="456" 
d="M237 45q15 0 32 3.5t34.5 9t33.5 12.5t29 13l21 -48q-29 -16 -60 -26.5t-64 -16.5q-6 -1 -13 -1h-13q-42 0 -79 18.5t-65.5 51t-46.5 76.5t-21 94v18q0 53 16 100t43.5 82t64 55.5t77.5 20.5q42 0 78 -19.5t63 -53.5t42 -80t15 -100v-30h-343q3 -38 16 -70.5t33.5 -56.5
t48 -38t58.5 -14zM371 277q-3 37 -15.5 69t-32 55.5t-44.5 36.5t-53 13q-27 0 -51 -13.5t-43 -37t-32 -55.5t-18 -68h289zM126 639q0 14 10.5 23.5t24.5 9.5t24.5 -9.5t10.5 -23.5q0 -13 -10.5 -23t-24.5 -10t-24.5 10t-10.5 23zM256 639q0 14 10.5 23.5t24.5 9.5t24.5 -9.5
t10.5 -23.5q0 -13 -10.5 -23t-24.5 -10t-24.5 10t-10.5 23z" />
    <glyph glyph-name="odieresis" unicode="&#xf6;" horiz-adv-x="527" 
d="M74 247q0 -42 14 -78.5t38.5 -64t57 -43.5t70.5 -16q37 0 69.5 16t56.5 43.5t38 64t14 78.5t-14 79.5t-38 65t-56.5 43.5t-69.5 16q-38 0 -70.5 -16t-57 -43.5t-38.5 -65t-14 -79.5zM19 247q0 54 18.5 101t50.5 82t75 55.5t91 20.5t90.5 -20.5t74 -55.5t50 -82t18.5 -101
q0 -53 -18.5 -99.5t-50 -81.5t-74 -55.5t-90.5 -20.5t-91 20.5t-75 55.5t-50.5 81.5t-18.5 99.5zM167 639q0 14 10.5 23.5t24.5 9.5t24.5 -9.5t10.5 -23.5q0 -13 -10.5 -23t-24.5 -10t-24.5 10t-10.5 23zM297 639q0 14 10.5 23.5t24.5 9.5t24.5 -9.5t10.5 -23.5
q0 -13 -10.5 -23t-24.5 -10t-24.5 10t-10.5 23z" />
    <glyph glyph-name="udieresis" unicode="&#xfc;" horiz-adv-x="450" 
d="M343 53q-24 -28 -57 -45t-71 -17q-35 0 -65.5 14.5t-53 39.5t-36 58.5t-14.5 71.5q-1 2 -3 4v319h54v-316l1 -5q1 -26 11.5 -49.5t27 -41.5t38.5 -28.5t47 -10.5q22 0 42.5 9.5t36.5 25.5t27 37t15 44v337h54v-446q0 -17 5 -33t10 -21h-69v53zM123 639q0 14 10.5 23.5
t24.5 9.5t24.5 -9.5t10.5 -23.5q0 -13 -10.5 -23t-24.5 -10t-24.5 10t-10.5 23zM253 639q0 14 10.5 23.5t24.5 9.5t24.5 -9.5t10.5 -23.5q0 -13 -10.5 -23t-24.5 -10t-24.5 10t-10.5 23z" />
    <glyph glyph-name="ydieresis" unicode="&#xff;" horiz-adv-x="535" 
d="M56 -133q6 -6 16.5 -7t20.5 -1q32 0 63 22t47 64q10 24 19 47t19 47q-47 115 -94.5 233.5t-95.5 233.5h58l159 -398q39 98 79 198.5t79 199.5h58l-190 -468l1 1q-11 -29 -22 -57t-21 -57q-11 -29 -28.5 -51t-39 -37.5t-45.5 -23.5t-48 -8q-22 0 -43 6zM176 639
q0 14 10.5 23.5t24.5 9.5t24.5 -9.5t10.5 -23.5q0 -13 -10.5 -23t-24.5 -10t-24.5 10t-10.5 23zM306 639q0 14 10.5 23.5t24.5 9.5t24.5 -9.5t10.5 -23.5q0 -13 -10.5 -23t-24.5 -10t-24.5 10t-10.5 23z" />
    <glyph glyph-name="idieresis" unicode="&#xef;" horiz-adv-x="177" 
d="M59 500h53v-500h-53v500zM6 639q0 14 10.5 23.5t24.5 9.5t24.5 -9.5t10.5 -23.5q0 -13 -10.5 -23t-24.5 -10t-24.5 10t-10.5 23zM98 639q0 14 10 23.5t25 9.5q14 0 24.5 -9.5t10.5 -23.5q0 -13 -10.5 -23t-24.5 -10q-15 0 -25 10t-10 23z" />
    <glyph glyph-name="tilde" unicode="&#x2dc;" horiz-adv-x="334" 
d="M150 582q-21 8 -48 8q-31 0 -59 -17l-16 43q36 19 75 19q23 0 37.5 -4.5t28.5 -9.5q13 -5 26.5 -9.5t30.5 -4.5q16 0 31.5 5t28.5 13l15 -43q-16 -9 -35.5 -14.5t-39.5 -5.5q-45 0 -76 20h1z" />
    <glyph glyph-name="ntilde" unicode="&#xf1;" horiz-adv-x="433" 
d="M196 600q-15 6 -36 6q-20 0 -38.5 -7.5t-33.5 -17.5l-19 42q17 12 42 19.5t52 7.5q17 0 27 -3t21 -6q10 -3 19.5 -5.5t20.5 -2.5q19 0 39 7.5t34 18.5l21 -42q-19 -13 -44 -20.5t-51 -7.5q-16 0 -29.5 2.5t-25.5 9.5zM92 453q51 62 129 62q35 0 66 -14.5t54 -39.5
t36.5 -58.5t14.5 -72.5l2 -323h-55v323q0 27 -10 51t-26.5 41.5t-39 27.5t-47.5 10q-22 0 -42 -9.5t-36.5 -25.5t-28.5 -37t-17 -44v-337h-54v448q0 15 -5 29t-10 19h69v-50z" />
    <glyph glyph-name="otilde" unicode="&#xf5;" horiz-adv-x="513" 
d="M74 247q0 -42 14 -78.5t38.5 -64t57 -43.5t70.5 -16q37 0 69.5 16t56.5 43.5t38 64t14 78.5t-14 79.5t-38 65t-56.5 43.5t-69.5 16q-38 0 -70.5 -16t-57 -43.5t-38.5 -65t-14 -79.5zM19 247q0 54 18.5 101t50.5 82t75 55.5t91 20.5t90.5 -20.5t74 -55.5t50 -82t18.5 -101
q0 -53 -18.5 -99.5t-50 -81.5t-74 -55.5t-90.5 -20.5t-91 20.5t-75 55.5t-50.5 81.5t-18.5 99.5zM247 582q-21 8 -48 8q-31 0 -59 -17l-16 43q36 19 75 19q23 0 37.5 -4.5t28.5 -9.5q13 -5 26.5 -9.5t30.5 -4.5q16 0 31.5 5t28.5 13l15 -43q-16 -9 -35.5 -14.5t-39.5 -5.5
q-45 0 -76 20h1z" />
    <glyph glyph-name="oslash" unicode="&#xf8;" horiz-adv-x="513" 
d="M19 247q0 54 18.5 101t50.5 82t75 55.5t91 20.5q50 0 94 -23t78 -62l-42 -36q-26 31 -60 48.5t-70 17.5q-38 0 -70.5 -16t-57 -43.5t-38.5 -65t-14 -79.5q0 -58 24 -104l-41 -36q-18 33 -28 68t-10 72zM432 247q0 32 -9 62t-26 57l43 36q22 -35 34.5 -74t12.5 -81
q0 -53 -18.5 -99.5t-50 -81.5t-74 -55.5t-90.5 -20.5q-54 0 -101.5 26t-81.5 71l40 36q27 -36 64 -57t79 -21q37 0 69.5 16t56.5 43.5t38 64t14 78.5z" />
    <glyph glyph-name="fi" unicode="&#xfb01;" horiz-adv-x="505" 
d="M293 632q-13 3 -22.5 3.5t-17.5 0.5q-20 -1 -37.5 -11t-30 -27.5t-20 -40.5t-7.5 -49v-19h127v-489h-53v434h-74v-434h-52v434h-73v55h72q0 2 -0.5 5t-0.5 6v7v12q2 35 14.5 66t32.5 54.5t46.5 37t55.5 13.5q14 0 26 -0.5t30 -2.5z" />
    <glyph glyph-name="fl" unicode="&#xfb02;" horiz-adv-x="490" 
d="M307 690v-690h-56v434h-93v-434h-52v434h-74v55h73q0 2 -0.5 5t-0.5 6v7v12q2 36 14.5 66.5t32.5 53.5t46 36.5t56 14.5h54zM158 489h93v147q-20 -2 -36.5 -12t-29.5 -27.5t-20 -40t-7 -48.5v-19zM253 636h5l-7 7v-7h2z" />
    <glyph glyph-name="exclam" unicode="!" horiz-adv-x="176" 
d="M109 21q0 -12 -8.5 -21t-20.5 -9q-13 0 -21.5 9t-8.5 21q0 13 8.5 21.5t21.5 8.5q14 0 21 -8.5t8 -20.5v-1zM56 686h48v-590h-48v590z" />
    <glyph glyph-name="exclamdown" unicode="&#xa1;" horiz-adv-x="160" 
d="M51 660q0 12 8 21t21 9q12 0 21 -9t9 -21q0 -13 -9 -21.5t-21 -8.5q-14 0 -21 8.5t-8 20.5v1zM104 0h-48v586h48v-586z" />
    <glyph glyph-name="quotesingle" unicode="'" horiz-adv-x="121" 
d="M40 681l60 5l8 -70l-79 -84l-14 14l33 68z" />
    <glyph glyph-name="parenleft" unicode="(" horiz-adv-x="260" 
d="M183 635q-19 -23 -34 -58.5t-25.5 -80.5t-16.5 -98t-6 -110q0 -63 7 -119.5t19.5 -104t30 -83t38.5 -55.5l-32 -53q-27 27 -49.5 69t-39 96t-25.5 117.5t-9 132.5q0 66 8.5 128t24.5 115t37.5 95.5t47.5 69.5z" />
    <glyph glyph-name="parenright" unicode=")" horiz-adv-x="246" 
d="M87 696q26 -28 48 -70.5t37.5 -95.5t24.5 -114.5t9 -127.5q0 -69 -9 -132.5t-25.5 -117.5t-39 -96t-49.5 -69l-33 53q21 20 39 55.5t30.5 83t19.5 104t7 119.5q0 57 -6 110t-16.5 98t-25.5 80.5t-34 58.5z" />
    <glyph glyph-name="asciitilde" unicode="~" horiz-adv-x="347" 
d="M162 297q-18 6 -37 6q-46 0 -76 -25l-23 43q20 14 46 21t52 7q16 0 28.5 -3t23.5 -7l22 -6t23 -3q21 0 43 6.5t36 18.5l19 -43q-19 -13 -43.5 -21t-51.5 -8q-38 0 -63 15z" />
    <glyph glyph-name="onequarter" unicode="&#xbc;" horiz-adv-x="382" 
d="M296 336l-104 -178h82v74h34v-74h48v-34h-48v-124h-34v124h-123v29l115 198zM27 448l69 58h29v-299h-34v251q-10 -8 -20.5 -16t-20.5 -16z" />
    <glyph glyph-name="onehalf" unicode="&#xbd;" horiz-adv-x="355" 
d="M15 449l69 58h29v-300h-34v252q-10 -8 -20.5 -16t-20.5 -16zM177 33h149v-33h-197v29l144 161q8 9 13.5 22.5t5.5 27.5q0 33 -23 55t-56 22q-30 0 -59 -26l-24 24q18 17 39 26.5t44 9.5q24 0 44.5 -8.5t35.5 -23.5t24 -35.5t9 -43.5q0 -22 -9 -41t-22 -34z" />
    <glyph glyph-name="bullet" unicode="&#x2022;" horiz-adv-x="209" 
d="M38 380q0 27 20.5 47.5t47.5 20.5q13 0 25.5 -5.5t22 -15t15 -22t5.5 -25.5q0 -12 -5.5 -24t-15 -21t-22 -14.5t-25.5 -5.5q-27 0 -47.5 20t-20.5 45z" />
    <glyph glyph-name="periodcentered" unicode="&#xb7;" horiz-adv-x="225" 
d="M56 312q0 20 17 38t41 18t42 -18t18 -38q0 -21 -18 -37.5t-42 -16.5t-41 16.5t-17 37.5z" />
    <glyph glyph-name="degree" unicode="&#xb0;" horiz-adv-x="250" 
d="M62 587q0 -12 5.5 -23t14.5 -19.5t20.5 -13.5t23.5 -5q10 0 20.5 5t19 13.5t13.5 19.5t5 23t-5 24t-13.5 21t-19 14.5t-20.5 5.5q-25 0 -44.5 -20t-19.5 -45zM21 587q0 22 8 41t22 32.5t33 21.5t42 8q42 0 70.5 -29t28.5 -74q0 -42 -28.5 -71t-70.5 -29q-23 0 -42 8
t-33 21.5t-22 31.5t-8 39z" />
    <glyph glyph-name="brokenbar" unicode="&#xa6;" horiz-adv-x="131" 
d="M50 399v312h39v-312h-39zM89 348v-347h-39v347h39z" />
    <glyph glyph-name="section" unicode="&#xa7;" horiz-adv-x="356" 
d="M256 424q-44 22 -82 22q-8 0 -16.5 -1t-15.5 -3q22 -37 72 -63q52 -25 82.5 -67.5t30.5 -87.5q0 -26 -10.5 -48.5t-28.5 -39.5q1 -5 1 -9.5v-9.5q0 -30 -12 -53t-31.5 -39.5t-45.5 -25t-53 -8.5q-48 0 -102 27l24 46q44 -19 77 -19q34 0 60 15.5t30 46.5q-27 -8 -53 -8
q-23 0 -49 6t-52 20l24 48q21 -9 41.5 -14.5t37.5 -5.5q21 0 40 7q-10 21 -28.5 37t-44.5 29t-47 31t-36.5 38.5t-24 43t-8.5 43.5q0 55 39 85q-1 5 -1 11v11q0 28 11 50t30.5 37.5t44.5 23.5t54 8q47 0 103 -25l-24 -51q-21 11 -42 16.5t-39 5.5q-32 0 -57 -15.5t-27 -44.5
q22 6 48 6q45 0 104 -25zM266 196q7 14 7 30q0 29 -24.5 59t-60.5 50q-29 12 -52 32t-37 44q-3 -7 -5.5 -16t-2.5 -17q0 -29 23 -57.5t63 -48.5q61 -28 89 -77v1z" />
    <glyph glyph-name="dagger" unicode="&#x2020;" horiz-adv-x="486" 
d="M39 544v39h182v128h39v-128h192v-39h-192v-543h-39v543h-182z" />
    <glyph glyph-name="threequarters" unicode="&#xbe;" horiz-adv-x="458" 
d="M51 214q11 -14 27.5 -22t35.5 -8q32 0 54 19.5t22 47.5q0 18 -10.5 32t-27.5 22.5t-38.5 11.5t-44.5 -1v35h52q29 2 49.5 19t20.5 41q0 26 -22 44.5t-53 18.5q-39 0 -66 -30l-24 24q17 19 40.5 29t49.5 10q22 0 42 -7.5t35 -20.5t24 -30.5t9 -37.5q0 -26 -13.5 -46
t-36.5 -31q22 -14 35 -35.5t13 -47.5q0 -21 -8.5 -39.5t-23.5 -32t-35 -21.5t-43 -8q-26 0 -48.5 11.5t-39.5 30.5zM225 125v30l116 198l30 -15l-102 -178h79v74h35v-74h48v-35h-48v-123h-35v123h-123z" />
    <glyph glyph-name="trademark" unicode="&#x2122;" horiz-adv-x="417" 
d="M129 467h-45v169h-58v42h160v-42h-57v-169zM362 678v-211h-43v116q-11 -17 -19.5 -32t-11.5 -20h-24l-30 52v-116h-44v211h36l51 -85q15 28 30 53q5 8 10.5 16.5t9.5 15.5h35z" />
    <glyph glyph-name="Ydieresis" unicode="&#x178;" horiz-adv-x="681" 
d="M649 691l-284 -380v-311h-56v311q-33 45 -69.5 93t-73 97t-72.5 97t-69 93h73l238 -326q60 81 120.5 163t120.5 163h72zM238 742q0 14 10.5 23.5t24.5 9.5t24.5 -9.5t10.5 -23.5q0 -13 -10.5 -23t-24.5 -10t-24.5 10t-10.5 23zM368 742q0 14 10.5 23.5t24.5 9.5
t24.5 -9.5t10.5 -23.5q0 -13 -10.5 -23t-24.5 -10t-24.5 10t-10.5 23z" />
    <glyph glyph-name="paragraph" unicode="&#xb6;" horiz-adv-x="382" 
d="M333 2h-52v683h52v-683zM271 0h-90v352q-32 3 -61 17t-50.5 36.5t-34.5 51.5t-13 62q0 35 13 65.5t35.5 53t52.5 35.5t65 13h83v-686zM169 636q-41 -2 -67.5 -34t-26.5 -79q0 -23 7 -43t19.5 -35.5t30 -24.5t37.5 -10v226z" />
    <glyph glyph-name="perthousand" unicode="&#x2030;" horiz-adv-x="833" 
 />
    <glyph glyph-name="Adieresis" unicode="&#xc4;" horiz-adv-x="596" 
d="M396 336q-25 67 -47.5 126.5t-47.5 127.5q-24 -66 -47 -127t-47 -127h189zM279 691h45l254 -691h-57l-105 281h-229q-25 -69 -52 -140.5t-53 -140.5h-57zM196 752q0 14 10.5 23.5t24.5 9.5t24.5 -9.5t10.5 -23.5q0 -13 -10.5 -23t-24.5 -10t-24.5 10t-10.5 23zM326 752
q0 14 10.5 23.5t24.5 9.5t24.5 -9.5t10.5 -23.5q0 -13 -10.5 -23t-24.5 -10t-24.5 10t-10.5 23z" />
    <glyph glyph-name="Edieresis" unicode="&#xcb;" horiz-adv-x="485" 
d="M393 340h-298v-285h349v-55h-404v691h404v-53h-349v-243h298v-55zM140 753q0 14 10.5 23.5t24.5 9.5t24.5 -9.5t10.5 -23.5q0 -13 -10.5 -23t-24.5 -10t-24.5 10t-10.5 23zM270 753q0 14 10.5 23.5t24.5 9.5t24.5 -9.5t10.5 -23.5q0 -13 -10.5 -23t-24.5 -10t-24.5 10
t-10.5 23z" />
    <glyph glyph-name="Idieresis" unicode="&#xcf;" horiz-adv-x="138" 
d="M98 0h-55v691h55v-691zM-32 752q0 14 10.5 23.5t24.5 9.5t24.5 -9.5t10.5 -23.5q0 -13 -10.5 -23t-24.5 -10t-24.5 10t-10.5 23zM98 752q0 14 10.5 23.5t24.5 9.5t24.5 -9.5t10.5 -23.5q0 -13 -10.5 -23t-24.5 -10t-24.5 10t-10.5 23z" />
    <glyph glyph-name="Odieresis" unicode="&#xd6;" 
d="M519 561q-34 38 -80 58t-98 20q-54 0 -101 -23t-82.5 -62.5t-55.5 -93.5t-20 -115q0 -62 20 -116.5t55 -95t82.5 -63.5t101.5 -23q56 0 103.5 23t82.5 63.5t55 95t20 116.5q0 65 -22 120.5t-61 95.5zM559 88q-43 -47 -98.5 -72t-119.5 -25q-63 0 -120.5 27t-100.5 74.5
t-68.5 112.5t-25.5 140q0 73 24.5 136.5t67.5 111t100.5 75t122.5 27.5q67 0 124.5 -27.5t99.5 -74.5t66 -111t24 -137q0 -78 -25 -143.5t-71 -113.5zM243 753q0 14 10.5 23.5t24.5 9.5t24.5 -9.5t10.5 -23.5q0 -13 -10.5 -23t-24.5 -10t-24.5 10t-10.5 23zM373 753
q0 14 10.5 23.5t24.5 9.5t24.5 -9.5t10.5 -23.5q0 -13 -10.5 -23t-24.5 -10t-24.5 10t-10.5 23z" />
    <glyph glyph-name="Udieresis" unicode="&#xdc;" horiz-adv-x="598" 
d="M97 176q3 -26 20.5 -49t44.5 -41t62 -28.5t75 -10.5q38 0 72 10.5t61 28.5t44 41t20 49v515h55v-515q-2 -38 -22.5 -71.5t-55 -59t-79.5 -40t-95 -14.5q-53 0 -99 14.5t-81 40t-56 59t-24 71.5v515h58v-515zM197 752q0 14 10.5 23.5t24.5 9.5t24.5 -9.5t10.5 -23.5
q0 -13 -10.5 -23t-24.5 -10t-24.5 10t-10.5 23zM327 752q0 14 10.5 23.5t24.5 9.5t24.5 -9.5t10.5 -23.5q0 -13 -10.5 -23t-24.5 -10t-24.5 10t-10.5 23z" />
    <glyph glyph-name="Icircumflex" unicode="&#xce;" horiz-adv-x="138" 
d="M98 0h-55v691h55v-691z" />
    <glyph glyph-name="Iacute" unicode="&#xcd;" horiz-adv-x="154" 
d="M98 0h-55v691h55v-691zM87 729h-38l74 98h86z" />
    <glyph glyph-name="Igrave" unicode="&#xcc;" horiz-adv-x="131" 
d="M106 0h-55v691h55v-691zM-42 827h87l73 -98h-37z" />
    <glyph glyph-name="Ntilde" unicode="&#xd1;" horiz-adv-x="537" 
d="M94 691l340 -576v576h55v-691h-52l-340 579v-579h-54v691h51zM253 740q-21 8 -48 8q-31 0 -59 -17l-16 43q36 19 75 19q23 0 37.5 -4.5t28.5 -9.5q13 -5 26.5 -9.5t30.5 -4.5q16 0 31.5 5t28.5 13l15 -43q-16 -9 -35.5 -14.5t-39.5 -5.5q-45 0 -76 20h1z" />
    <glyph glyph-name="onesuperior" unicode="&#xb9;" horiz-adv-x="263" 
d="M28 578l130 108h50v-306h-55v233q-21 -18 -44 -36.5t-43 -35.5z" />
    <glyph glyph-name="plus" unicode="+" horiz-adv-x="452" 
d="M252 118h-54v148h-147v54h147v147h54v-147h148v-54h-148v-148z" />
    <glyph glyph-name="hyphen" unicode="-" horiz-adv-x="421" 
d="M37 266v54h349v-54h-349z" />
    <glyph glyph-name="fraction" unicode="&#x2044;" horiz-adv-x="382" 
d="M96 0h-59l251 686h58z" />
    <glyph glyph-name="slash" unicode="/" horiz-adv-x="378" 
d="M96 0h-59l251 686h58z" />
    <glyph glyph-name="ampersand" unicode="&#x26;" horiz-adv-x="597" 
d="M245 0q-45 0 -83 15.5t-65.5 41.5t-43 60.5t-15.5 72.5q0 57 38.5 107t118.5 86q5 3 8 4t9 4q-3 3 -6 7t-5 7q-26 27 -41 47.5t-22.5 37.5t-10 30.5t-2.5 27.5q0 27 11 52.5t32 45.5t50 32t65 12q33 0 60.5 -11t47 -29.5t30.5 -43t11 -52.5q0 -45 -29.5 -83t-95.5 -74
l-15 -8q39 -48 75 -93.5t75 -93.5q2 5 4.5 9.5t4.5 9.5q9 18 17.5 39t14.5 48l62 -13q-14 -41 -29 -77t-32 -61q0 -5 -1 -8.5t-1 -7.5q9 -14 15 -23t12.5 -17t15 -16t22.5 -19v-65q-30 19 -47.5 36.5t-35.5 39.5q-6 8 -7 9l-12 15q-2 -3 -5.5 -6.5l-5.5 -5.5
q-80 -90 -189 -89zM483 137l-1 3v1zM371 553q0 39 -25.5 66.5t-67.5 27.5q-19 0 -36 -7t-29.5 -19.5t-20 -29t-7.5 -35.5q2 -41 36 -80l46 -53l9 5h-1q28 16 46.5 31t29.5 29.5t15.5 30.5t4.5 34zM228 351q-68 -39 -96.5 -76.5t-28.5 -79.5q0 -26 10.5 -52t29 -47t44.5 -34
t58 -13q21 0 43.5 6.5t43 18.5t38.5 28.5t31 36.5v-1q1 2 2.5 4.5t3.5 4.5q-44 54 -84.5 105.5t-84.5 105.5z" />
    <glyph glyph-name="Otilde" unicode="&#xd5;" 
d="M519 561q-34 38 -80 58t-98 20q-54 0 -101 -23t-82.5 -62.5t-55.5 -93.5t-20 -115q0 -62 20 -116.5t55 -95t82.5 -63.5t101.5 -23q56 0 103.5 23t82.5 63.5t55 95t20 116.5q0 65 -22 120.5t-61 95.5zM559 88q-43 -47 -98.5 -72t-119.5 -25q-63 0 -120.5 27t-100.5 74.5
t-68.5 112.5t-25.5 140q0 73 24.5 136.5t67.5 111t100.5 75t122.5 27.5q67 0 124.5 -27.5t99.5 -74.5t66 -111t24 -137q0 -78 -25 -143.5t-71 -113.5zM329 741q-21 8 -48 8q-31 0 -59 -17l-16 43q36 19 75 19q23 0 37.5 -4.5t28.5 -9.5q13 -5 26.5 -9.5t30.5 -4.5
q16 0 31.5 5t28.5 13l15 -43q-16 -9 -35.5 -14.5t-39.5 -5.5q-45 0 -76 20h1z" />
    <glyph glyph-name="Eth" unicode="&#xd0;" horiz-adv-x="653" 
d="M40 269v54h66v368h257q51 -1 95 -28t77 -73.5t52 -109t19 -133.5t-18.5 -133.5t-51 -109t-76.5 -74.5t-95 -30h-259v269h-66zM161 636v-313h171v-54h-171v-214q51 0 102 1t102 1q39 1 72.5 24.5t59 62.5t40 91.5t14.5 111.5t-14.5 111.5t-40 91.5t-60 62t-73.5 24h-202z
" />
    <glyph glyph-name="plusminus" unicode="&#xb1;" horiz-adv-x="452" 
d="M252 300h-54v147h-147v55h147v147h54v-147h148v-55h-148v-147zM50 150v54h349v-54h-349z" />
    <glyph glyph-name="asterisk" unicode="*" horiz-adv-x="471" 
d="M261 377h-54v108q-20 -19 -40 -38.5t-37 -36.5l-39 37l78 78h-108v54h108l-77 77l38 39l77 -77v109h54v-109l77 77l39 -38l-77 -77h109v-55h-110q18 -19 39 -39t39 -39l-38 -37l-78 77v-110z" />
    <glyph glyph-name="multiply" unicode="&#xd7;" horiz-adv-x="367" 
d="M71 170l-38 38l104 105l-103 103l37 39l105 -104l104 104l39 -38l-105 -104l105 -105l-38 -38l-105 104z" />
    <glyph glyph-name="minus" unicode="&#x2212;" horiz-adv-x="417" 
d="M37 266v54h349v-54h-349z" />
    <glyph glyph-name="underscore" unicode="_" horiz-adv-x="513" 
d="M37 0v54h423v-54h-423z" />
    <glyph glyph-name="backslash" unicode="\" horiz-adv-x="371" 
d="M37 686h58l251 -686h-59z" />
    <glyph glyph-name="endash" unicode="&#x2013;" horiz-adv-x="416" 
d="M37 266v54h349v-54h-349z" />
    <glyph glyph-name="emdash" unicode="&#x2014;" horiz-adv-x="532" 
d="M38 266v54h460v-54h-460z" />
    <glyph glyph-name="divide" unicode="&#xf7;" horiz-adv-x="425" 
d="M169 212h76v-76h-76v76zM169 452h76v-76h-76v76zM34 273v54h349v-54h-349z" />
    <glyph glyph-name="ellipsis" unicode="&#x2026;" horiz-adv-x="435" 
d="M38 76h76v-76h-76v76zM179 76h76v-76h-76v76zM320 76h76v-76h-76v76z" />
    <glyph glyph-name="at" unicode="@" horiz-adv-x="754" 
d="M502 194q10 0 24 7t29 19.5t29 29.5t24 37q5 11 9.5 27t8 33.5t5.5 34.5t2 29q0 43 -17.5 82.5t-49.5 68.5t-76.5 46.5t-98.5 17.5q-61 0 -112.5 -22.5t-89.5 -62t-59.5 -94t-21.5 -117.5q0 -125 77 -195t216 -70q86 0 147.5 31t91.5 76h75l-6 -15q-17 -30 -45 -58.5
t-67 -50t-88 -34.5t-107 -13q-78 0 -143.5 20.5t-113 61.5t-73.5 101t-26 140q0 78 25 144.5t70.5 116t110 77.5t142.5 28q60 0 114.5 -19t96 -55t66.5 -88t25 -118q0 -45 -15 -91.5t-41.5 -85t-63 -64.5t-80.5 -32q-15 1 -37.5 4.5t-36.5 20.5q-17 -13 -37.5 -20.5
t-43.5 -7.5q-27 0 -50.5 10.5t-41.5 28.5t-28 42.5t-10 52.5t10.5 52t28.5 42t42.5 28t52.5 10h71q0 18 -2 35.5t-6 30.5t-11.5 21t-19.5 8q-21 0 -34 -1.5t-31 -8.5l-13 -1l-14 57l12 1q20 7 36.5 9t44.5 2q23 -1 39.5 -12.5t27.5 -30.5t16.5 -44.5t7.5 -53.5h2
q-1 -22 -1 -47q-1 -21 -1 -47v-52v-11.5t-1 -11.5q-1 -9 -1 -18t3 -16t10.5 -11t21.5 -4zM422 347h-77q-35 0 -60.5 -22t-25.5 -57q0 -34 24 -57.5t58 -23.5q33 0 57 23.5t24 57.5v79z" />
    <glyph glyph-name="yen" unicode="&#xa5;" horiz-adv-x="681" 
d="M166 200h142v24h-142v56h142v28q-33 45 -69 93t-72 96.5t-72 96.5l-69 92h73l235 -324q60 81 120 162.5t120 161.5h72l-282 -378v-28h142v-56h-142v-24h142v-56h-142v-144h-56v144h-142v56z" />
    <glyph glyph-name="sterling" unicode="&#xa3;" horiz-adv-x="556" 
d="M193 293v-239h328v-54h-382v293h-117v54h117v339h54v-339h178v-54h-178z" />
    <glyph glyph-name="thorn" unicode="&#xfe;" horiz-adv-x="517" 
d="M113 475q27 15 61 24t76 9q50 -1 94 -21.5t76.5 -55.5t51.5 -81.5t19 -98.5q0 -54 -19 -101.5t-51.5 -82.5t-76.5 -55.5t-94 -20.5q-42 0 -75.5 10.5t-62.5 23.5v-216h-54v878h55v-212zM113 98q-1 -10 9.5 -19t29 -16t44 -11.5t54.5 -5.5q38 1 71.5 17t59 44t40.5 64.5
t15 78.5q0 40 -15 77t-40.5 64.5t-59 44t-71.5 16.5q-53 0 -92.5 -14t-47.5 -33z" />
    <glyph glyph-name="Oslash" unicode="&#xd8;" 
d="M559 88q-43 -47 -98.5 -72t-119.5 -25q-24 0 -48.5 4.5t-45.5 11.5q-1 -2 -1 -4v-3h-60l11 30q-37 21 -68.5 53t-54 72.5t-35.5 88.5t-13 101q0 73 24.5 136.5t67.5 111t100.5 75t122.5 27.5q23 0 47.5 -4t46.5 -11q1 3 1.5 6t1.5 5h58l-11 -33q79 -47 124.5 -128.5
t45.5 -184.5q0 -78 -25 -143.5t-71 -113.5zM519 561q-14 14 -26 24.5t-27 19.5q-51 -138 -100 -273.5t-100 -272.5q19 -7 37 -9.5t38 -2.5q56 0 103.5 23t82.5 63.5t55 95t20 116.5q0 65 -22 120.5t-61 95.5zM341 639q-54 0 -101 -23t-82.5 -62.5t-55.5 -93.5t-20 -115
q0 -87 36.5 -156t96.5 -107q51 139 100 273t100 272q-18 7 -36 9.5t-38 2.5z" />
    <glyph glyph-name="daggerdbl" unicode="&#x2021;" horiz-adv-x="408" 
d="M28 465h340v-56h-340v56zM28 303h340v-57h-340v57zM168 0v686h57v-686h-57z" />
    <glyph glyph-name="logicalnot" unicode="&#xac;" horiz-adv-x="662" 
d="M617 159h-54v177h-524v54h578v-231z" />
    <glyph glyph-name="guilsinglright" unicode="&#x203a;" horiz-adv-x="343" 
d="M325 248l-247 -246l-39 40l210 206q-51 52 -104.5 105.5l-105.5 105.5l40 38z" />
    <glyph glyph-name="guillemotright" unicode="&#xbb;" horiz-adv-x="524" 
d="M326 278l-224 -267l-40 36l189 224q-56 48 -114 96t-114 95l36 42zM491 278l-224 -267l-40 36l189 224q-56 48 -114 96t-114 95l36 42z" />
    <glyph glyph-name="greater" unicode="&#x3e;" horiz-adv-x="336" 
d="M317 248l-247 -246l-39 40l209 206q-51 52 -104.5 105.5t-104.5 105.5l39 38z" />
    <glyph glyph-name="less" unicode="&#x3c;" horiz-adv-x="330" 
d="M267 497l40 -38l-209 -211q51 -50 104.5 -103t104.5 -103l-39 -40l-247 246z" />
    <glyph glyph-name="Thorn" unicode="&#xde;" horiz-adv-x="535" 
d="M113 478q27 16 61.5 25t76.5 9q51 -1 95 -22t77 -56t52 -81.5t19 -99.5q0 -54 -19 -102t-52 -83.5t-77 -56t-95 -20.5q-42 0 -76 10.5t-63 23.5v-217h-54v884h55v-214zM113 99q-1 -10 9.5 -19.5t29 -16.5t44.5 -11.5t55 -5.5q38 1 72 17.5t59.5 44.5t40.5 65t15 79
q0 41 -15 78t-40.5 65t-59.5 44.5t-72 16.5q-54 0 -94 -14.5t-47 -33.5z" />
    <glyph glyph-name="guilsinglleft" unicode="&#x2039;" horiz-adv-x="352" 
d="M286 497l39 -38l-209 -211q51 -50 104.5 -103t104.5 -103l-38 -40l-248 246z" />
    <glyph glyph-name="asciicircum" unicode="^" horiz-adv-x="551" 
d="M274 689l246 -247l-40 -39l-206 209q-52 -51 -105.5 -104.5t-105.5 -104.5l-38 40z" />
    <glyph glyph-name="circumflex" unicode="&#x2c6;" horiz-adv-x="268" 
d="M137 672l115 -114l-35 -34l-80 81l-81 -81l-33 35z" />
    <glyph glyph-name="caron" unicode="&#x2c7;" horiz-adv-x="276" 
d="M138 524l-115 114l35 34l80 -81l81 81l33 -35z" />
    <glyph glyph-name="Lslash" unicode="&#x141;" horiz-adv-x="570" 
d="M295 677v14h44v-14h-44zM97 0h-60l124 336v355h55v-203q18 51 37.5 102t36.5 101h59l-133 -367v-269h330v-55h-385v172z" />
    <glyph glyph-name="Zcaron" unicode="&#x17d;" horiz-adv-x="548" 
d="M124 55h355v-55h-455l397 636h-362v55h460zM272 715l-115 114l35 34l80 -81l81 81l33 -35z" />
    <glyph glyph-name="zcaron" unicode="&#x17e;" horiz-adv-x="452" 
d="M41 52l296 393h-293v55h368v-52l-296 -393h296v-55h-371v52zM224 524l-115 114l35 34l80 -81l81 81l33 -35z" />
    <glyph glyph-name="florin" unicode="&#x192;" horiz-adv-x="328" 
d="M293 632q-13 3 -22.5 3.5t-17.5 0.5q-20 -1 -37.5 -11t-30 -27.5t-20 -40.5t-7.5 -49v-19h128v-55h-128v-434h-52v434h-73v55h72q0 2 -0.5 5t-0.5 6v7v12q2 35 14.5 66t32.5 54.5t46.5 37t55.5 13.5q14 0 26 -0.5t30 -2.5z" />
    <glyph glyph-name="Scaron" unicode="&#x160;" horiz-adv-x="485" 
d="M83 126q24 -37 63 -58.5t89 -21.5q30 0 57.5 9.5t48 27t33 40.5t12.5 50q0 26 -11.5 49.5t-31 42.5t-46 31.5t-56.5 17.5q-43 5 -79.5 22t-63.5 43t-42.5 59t-15.5 69q0 40 17 74.5t46 59.5t68 39t84 14q59 0 105 -21.5t81 -60.5l-45 -36q-25 31 -61 48.5t-80 17.5
q-31 0 -59.5 -10t-50.5 -28t-35 -42t-13 -51t11.5 -51.5t31.5 -44t47.5 -32t59.5 -15.5q42 -6 78 -23t62 -43t41 -58t15 -68q0 -39 -16.5 -72.5t-45 -58.5t-67 -39.5t-81.5 -14.5q-63 0 -113.5 27.5t-80.5 72.5zM241 715l-115 114l35 34l80 -81l81 81l33 -35z" />
    <glyph glyph-name="scaron" unicode="&#x161;" horiz-adv-x="417" 
d="M334 405q-23 22 -55 33.5t-67 11.5q-47 0 -78.5 -21t-31.5 -55q0 -17 8.5 -32.5t24 -28.5t36.5 -22t46 -13q34 -5 63 -19t50 -34.5t33 -45.5t12 -52q0 -30 -13 -55t-35.5 -42.5t-52.5 -27.5t-64 -10q-46 0 -91 18.5t-73 52.5l41 32q21 -21 53 -35t67 -14q24 0 44.5 6
t36 16.5t24.5 25.5t9 33q0 16 -9.5 32t-25 29.5t-36.5 23.5t-43 15q-33 5 -62.5 19.5t-51 34.5t-34 44.5t-12.5 49.5q0 29 13.5 53t37 41t54 26.5t64.5 9.5q47 0 90 -19t72 -49zM207 524l-115 114l35 34l80 -81l81 81l33 -35z" />
    <glyph glyph-name="ecircumflex" unicode="&#xea;" horiz-adv-x="456" 
d="M237 45q15 0 32 3.5t34.5 9t33.5 12.5t29 13l21 -48q-29 -16 -60 -26.5t-64 -16.5q-6 -1 -13 -1h-13q-42 0 -79 18.5t-65.5 51t-46.5 76.5t-21 94v18q0 53 16 100t43.5 82t64 55.5t77.5 20.5q42 0 78 -19.5t63 -53.5t42 -80t15 -100v-30h-343q3 -38 16 -70.5t33.5 -56.5
t48 -38t58.5 -14zM371 277q-3 37 -15.5 69t-32 55.5t-44.5 36.5t-53 13q-27 0 -51 -13.5t-43 -37t-32 -55.5t-18 -68h289zM225 672l115 -114l-35 -34l-80 81l-81 -81l-33 35z" />
    <glyph glyph-name="Atilde" unicode="&#xc3;" horiz-adv-x="596" 
d="M295 770q-17 6 -35 6q-21 0 -39.5 -6t-32.5 -16l-21 40q19 12 43 19.5t50 7.5q15 0 26.5 -2.5t22.5 -5.5q10 -3 20.5 -6t20.5 -3q22 0 42 5.5t33 16.5l20 -40q-38 -27 -93 -27q-33 0 -58 12zM399 343q-25 67 -47.5 126.5t-47.5 127.5q-24 -66 -47 -127t-47 -127h189z
M282 698h45l254 -691h-57l-105 281h-229q-25 -69 -52 -140.5t-53 -140.5h-57z" />
    <glyph glyph-name="AE" unicode="&#xc6;" horiz-adv-x="1081" 
d="M529 638h-213q-27 -78 -53.5 -151t-53.5 -151h311zM925 691v-53h-350v-243h299v-55h-299v-285h350v-55h-405v281h-331q-25 -69 -52.5 -140.5t-52.5 -140.5h-58l255 691h644z" />
    <glyph glyph-name="acircumflex" unicode="&#xe2;" horiz-adv-x="406" 
d="M310 30q-22 -18 -50.5 -29t-60.5 -11q-33 0 -63 12t-52 33t-35 49t-13 60q0 34 13.5 62.5t37 49t54 32t65.5 11.5h104v14q0 57 -26.5 96.5t-70.5 41.5q-30 0 -59.5 -4t-58.5 -12l-13 52q31 9 64 14t68 5q30 -1 56.5 -14.5t47 -37t33 -54.5t14.5 -67v-10q-1 -25 -1 -52
q-1 -23 -1 -52.5v-59.5q0 -27 1 -54t3 -48.5t5 -37t7 -19.5h-69v30zM310 245h-104q-24 0 -44.5 -7.5t-36.5 -20.5t-25 -32t-9 -41q0 -21 8.5 -38.5t23 -31t34 -21t42.5 -7.5t43 7.5t35 21t24 31t9 38.5v101zM200 672l115 -114l-35 -34l-80 81l-81 -81l-33 35z" />
    <glyph glyph-name="germandbls" unicode="&#xdf;" horiz-adv-x="520" 
d="M104 633v-241h167q27 1 51 10.5t41.5 26t27.5 38t10 47.5q0 23 -10 44t-27.5 37t-41.5 26t-51 12h-167zM104 -168h-55v854h222q38 -1 72 -15t59 -37.5t39.5 -54.5t14.5 -65q0 -48 -25 -87t-64 -63q48 -24 75.5 -69t27.5 -98q0 -39 -15.5 -74.5t-42 -62t-63 -42
t-78.5 -16.5h-86l-52 52h138q30 1 56 13t45.5 31.5t31 45t11.5 53.5q0 27 -11.5 52t-32.5 44t-51 31t-66 14h-150v-506z" />
    <glyph glyph-name="guillemotleft" unicode="&#xab;" horiz-adv-x="532" 
d="M456 504l36 -42l-228 -191q47 -55 95.5 -112t93.5 -112l-40 -36l-224 267zM291 504l36 -42l-228 -191q46 -55 94.5 -112t94.5 -112l-40 -36l-224 267z" />
    <glyph glyph-name="ucircumflex" unicode="&#xfb;" horiz-adv-x="450" 
d="M343 53q-24 -28 -57 -45t-71 -17q-35 0 -65.5 14.5t-53 39.5t-36 58.5t-14.5 71.5q-1 2 -3 4v319h54v-316l1 -5q1 -26 11.5 -49.5t27 -41.5t38.5 -28.5t47 -10.5q22 0 42.5 9.5t36.5 25.5t27 37t15 44v337h54v-446q0 -17 5 -33t10 -21h-69v53zM222 672l115 -114l-35 -34
l-80 81l-81 -81l-33 35z" />
    <glyph glyph-name="ocircumflex" unicode="&#xf4;" horiz-adv-x="513" 
d="M74 247q0 -42 14 -78.5t38.5 -64t57 -43.5t70.5 -16q37 0 69.5 16t56.5 43.5t38 64t14 78.5t-14 79.5t-38 65t-56.5 43.5t-69.5 16q-38 0 -70.5 -16t-57 -43.5t-38.5 -65t-14 -79.5zM19 247q0 54 18.5 101t50.5 82t75 55.5t91 20.5t90.5 -20.5t74 -55.5t50 -82t18.5 -101
q0 -53 -18.5 -99.5t-50 -81.5t-74 -55.5t-90.5 -20.5t-91 20.5t-75 55.5t-50.5 81.5t-18.5 99.5zM254 672l115 -114l-35 -34l-80 81l-81 -81l-33 35z" />
    <glyph glyph-name="eth" unicode="&#xf0;" horiz-adv-x="489" 
d="M35 482q0 43 16.5 81t44.5 66.5t66 45t82 16.5q42 0 79 -16.5t65.5 -45t46 -65.5t20.5 -79q2 -32 2.5 -68.5t0.5 -68.5v-26q0 -40 -2.5 -77.5t-9.5 -72.5q-8 -40 -28 -73t-49.5 -56.5t-66 -36.5t-76.5 -13q-50 0 -95 24.5t-77 63.5l50 41q24 -35 58 -54t71 -19
q63 0 106.5 39t56.5 97q5 35 8 74t3 79v12q-29 -32 -72 -53.5t-93 -21.5q-41 0 -78.5 15.5t-65.5 42.5t-45 63.5t-18 78.5v7zM87 477q2 -31 15 -58t34 -47t48 -31.5t58 -11.5q33 0 62 12t50 33t33.5 49t12.5 61q0 31 -13 58.5t-34.5 48t-49.5 32.5t-58 12q-33 0 -62 -13
t-50.5 -34.5t-33.5 -50.5t-12 -60z" />
    <glyph glyph-name="icircumflex" unicode="&#xee;" horiz-adv-x="177" 
d="M59 500h53v-500h-53v500zM89 679l115 -114l-35 -34l-80 81l-81 -81l-33 35z" />
    <glyph glyph-name="dotlessi" unicode="&#x131;" horiz-adv-x="343" 
d="M30 50v54h177v524h55v-578h-232z" />
    <glyph glyph-name="numbersign" unicode="#" horiz-adv-x="714" 
d="M69 271h100q12 32 23.5 63t23.5 63h-194l45 56h168q17 47 35.5 94t35.5 93h58l-68 -187h218q17 47 35 94t35 93h58l-68 -187h118l-45 -56h-92q-12 -32 -24.5 -63t-23.5 -63h186l-47 -56h-160q-18 -52 -38.5 -107.5t-38.5 -107.5h-60l79 215h-220q-18 -52 -38.5 -107.5
t-39.5 -107.5h-59l79 215h-127zM229 271h219q11 32 23 63t23 63h-218z" />
    <glyph glyph-name="atilde" unicode="&#xe3;" horiz-adv-x="406" 
d="M184 558q-17 5 -32 5q-20 0 -40 -7t-33 -18l-23 40q19 13 44 21.5t51 8.5q14 0 25 -2.5t21 -5.5t19 -5.5t18 -2.5q22 0 43.5 7t35.5 19l19 -39q-19 -15 -44 -23t-50 -8q-31 0 -55 11zM313 37q-22 -18 -50.5 -29t-60.5 -11q-33 0 -63 12t-52 33t-35 49t-13 60
q0 34 13.5 62.5t37 49t54 32t65.5 11.5h104v14q0 57 -26.5 96.5t-70.5 41.5q-30 0 -59.5 -4t-58.5 -12l-13 52q31 9 64 14t68 5q30 -1 56.5 -14.5t47 -37t33 -54.5t14.5 -67v-10q-1 -25 -1 -52q-1 -23 -1 -52.5v-59.5q0 -27 1 -54t3 -48.5t5 -37t7 -19.5h-69v30zM313 252
h-104q-24 0 -44.5 -7.5t-36.5 -20.5t-25 -32t-9 -41q0 -21 8.5 -38.5t23 -31t34 -21t42.5 -7.5t43 7.5t35 21t24 31t9 38.5v101z" />
    <glyph glyph-name="dotaccent" unicode="&#x2d9;" horiz-adv-x="148" 
d="M36 650h76v-76h-76v76z" />
    <glyph glyph-name="bracketleft" unicode="[" horiz-adv-x="210" 
d="M154 53q0 1 17 1v-54q-11 0 -23.5 4t-23.5 10.5t-18 16.5t-7 22v235q0 16 -10.5 26.5t-25.5 10.5h-27v54h27q15 0 25.5 11t10.5 26v225q4 20 25 32.5t47 12.5v-56q-16 0 -17 3v-230q-5 -14 -15 -24.5t-27 -12.5v-27q32 -5 42 -36v-250v0z" />
    <glyph glyph-name="bracketright" unicode="]" horiz-adv-x="183" 
d="M42 302q8 35 39 37q0 7 0.5 13t1.5 14q-15 3 -26.5 13.5t-14.5 23.5v227h-19v56q30 0 49 -13t23 -32l2 -6v-219q0 -15 9 -26t24 -11h27v-54h-27q-15 0 -24 -10.5t-9 -26.5v-235q0 -12 -7 -21.5t-17.5 -16.5t-24 -11t-25.5 -4v54q8 0 12.5 0.5t6.5 1.5v246z" />
    <glyph glyph-name="lslash" unicode="&#x142;" horiz-adv-x="380" 
d="M163 686h55v-231q21 37 42.5 74t41.5 72h62l-146 -256v-345h-55v249q-20 -35 -39.5 -69t-39.5 -68h-67l146 250v324z" />
  </font>
</defs>
</svg>
